<svg width="192" height="192" viewBox="0 0 192 192" fill="none" xmlns="http://www.w3.org/2000/svg">
<path d="M91.29 89.4546L96.1838 82.1483L101.709 89.4546H91.29Z" fill="#0A0A0A" stroke="#0A0A0A" stroke-width="4"/>
<path d="M45.8939 89.1937L95.7557 13L145.915 89.1937C145.915 91.2812 143.385 95.3857 139.813 98.3266C136.804 100.804 134.693 101.892 130.882 103.284C126.925 104.73 124.184 105.372 120.166 105.372H56.4616L23.5677 156.124H13L50.8057 97.8047H91.2905H115.849C125.375 97.8047 130.882 92.1945 130.882 92.1945C130.882 92.1945 134.743 89.1937 130.882 83.4531C119.124 65.9703 95.7557 29.0477 95.7557 29.0477L56.4616 89.1937H45.8939Z" fill="#0A0A0A" stroke="#0A0A0A" stroke-width="4"/>
<path d="M64.7966 112.548H105.281H136.24C145.766 112.548 151.72 108.895 154.548 107.068C158.239 104.684 161.99 99.1094 161.99 99.1094H173.004C173.004 100.414 168.224 106.618 163.627 110.199C152.911 118.549 144.575 120.115 140.557 120.115H70.4526L46.4891 156.255H35.9214L64.7966 112.548Z" fill="#0A0A0A"/>
<path d="M157.674 89.7157L127.905 45.6172H138.324L168.39 89.7157H157.674Z" fill="#0A0A0A"/>
<path d="M64.7966 112.548H105.281H136.24C145.766 112.548 151.72 108.895 154.548 107.068C158.239 104.684 161.99 99.1094 161.99 99.1094H173.004C173.004 100.414 168.224 106.618 163.627 110.199C152.911 118.549 144.575 120.115 140.557 120.115H70.4526L46.4891 156.255H35.9214L64.7966 112.548Z" stroke="#0A0A0A" stroke-width="4"/>
<path d="M157.674 89.7157L127.905 45.6172H138.324L168.39 89.7157H157.674Z" stroke="#0A0A0A" stroke-width="4"/>
<path d="M34.1356 89.7157L63.9038 45.6172H53.4849L23.419 89.7157H34.1356Z" fill="#0A0A0A" stroke="#0A0A0A" stroke-width="4"/>
<path d="M146.362 156.516L127.608 128.595H138.027L156.781 156.516H146.362Z" fill="#0A0A0A" stroke="#0A0A0A" stroke-width="4"/>
<path d="M30.4144 116.331L18.0605 98.8485H28.4794L35.6238 109.025L30.4144 116.331Z" fill="#0A0A0A" stroke="#0A0A0A" stroke-width="4"/>
<path d="M169.581 156.377L149.19 126.899L157.525 123.768L180 156.377H169.581Z" fill="#0A0A0A" stroke="#0A0A0A" stroke-width="4"/>
<path d="M77.8945 136.554L72.6851 144.121L96.3508 180L122.525 140.598L117.04 132.118L96.3508 164.474L77.8945 136.554Z" fill="#0A0A0A" stroke="#0A0A0A" stroke-width="4"/>
<path d="M80.4247 87.4976H70.0059L95.6066 48.4874L117.04 80.9496C118.082 82.9312 119.868 84.6273 116.593 87.4976C113.319 90.3679 112.128 89.0632 111.086 87.4976L95.6066 64.4046L80.4247 87.4976Z" fill="#0A0A0A" stroke="#0A0A0A" stroke-width="4"/>
<path d="M108.556 128.204H92.6351L87.7183 135.51H103.45L108.556 128.204Z" fill="#0A0A0A" stroke="#0A0A0A" stroke-width="4"/>
</svg>
