<svg xmlns="http://www.w3.org/2000/svg" width="1440" height="900"><path d="M663,365L735,312L677,289Z" fill="#1f2d37" stroke="#1f2d37" stroke-width="1.51"/><path d="M735,312L776,164L677,289Z" fill="#1d2933" stroke="#1d2933" stroke-width="1.51"/><path d="M776,164L695,139L677,289Z" fill="#1a242d" stroke="#1a242d" stroke-width="1.51"/><path d="M456,428L579,505L663,365Z" fill="#202e39" stroke="#202e39" stroke-width="1.51"/><path d="M663,365L822,498L735,312Z" fill="#243643" stroke="#243643" stroke-width="1.51"/><path d="M450,221L663,365L677,289Z" fill="#19242c" stroke="#19242c" stroke-width="1.51"/><path d="M579,505L822,498L663,365Z" fill="#243846" stroke="#243846" stroke-width="1.51"/><path d="M735,312L924,239L776,164Z" fill="#1f2d38" stroke="#1f2d38" stroke-width="1.51"/><path d="M822,498L869,488L735,312Z" fill="#283e4d" stroke="#283e4d" stroke-width="1.51"/><path d="M695,139L530,160L677,289Z" fill="#171f26" stroke="#171f26" stroke-width="1.51"/><path d="M924,239L820,120L776,164Z" fill="#1e2d37" stroke="#1e2d37" stroke-width="1.51"/><path d="M776,164L820,120L695,139Z" fill="#1b2831" stroke="#1b2831" stroke-width="1.51"/><path d="M695,139L508,-12L530,160Z" fill="#151d23" stroke="#151d23" stroke-width="1.51"/><path d="M957,329L924,239L735,312Z" fill="#233643" stroke="#233643" stroke-width="1.51"/><path d="M450,221L456,428L663,365Z" fill="#19232c" stroke="#19232c" stroke-width="1.51"/><path d="M869,488L957,329L735,312Z" fill="#263d4b" stroke="#263d4b" stroke-width="1.51"/><path d="M530,160L450,221L677,289Z" fill="#151c22" stroke="#151c22" stroke-width="1.51"/><path d="M820,120L812,-4L695,139Z" fill="#1b2932" stroke="#1b2932" stroke-width="1.51"/><path d="M924,239L878,101L820,120Z" fill="#1f2f39" stroke="#1f2f39" stroke-width="1.51"/><path d="M1010,11L878,101L1065,76Z" fill="#223743" stroke="#223743" stroke-width="1.51"/><path d="M371,414L448,495L456,428Z" fill="#1b2730" stroke="#1b2730" stroke-width="1.51"/><path d="M456,428L448,495L579,505Z" fill="#1f2e38" stroke="#1f2e38" stroke-width="1.51"/><path d="M450,221L371,414L456,428Z" fill="#171f26" stroke="#171f26" stroke-width="1.51"/><path d="M460,624L710,673L579,505Z" fill="#283f4f" stroke="#283f4f" stroke-width="1.51"/><path d="M579,505L710,673L822,498Z" fill="#2a4354" stroke="#2a4354" stroke-width="1.51"/><path d="M822,498L981,642L869,488Z" fill="#2f4f62" stroke="#2f4f62" stroke-width="1.51"/><path d="M957,329L1042,298L924,239Z" fill="#273c4b" stroke="#273c4b" stroke-width="1.51"/><path d="M1083,330L1042,298L957,329Z" fill="#2a4353" stroke="#2a4353" stroke-width="1.51"/><path d="M1083,330L957,329L1013,586Z" fill="#2e4b5e" stroke="#2e4b5e" stroke-width="1.51"/><path d="M878,101L812,-4L820,120Z" fill="#1d2d37" stroke="#1d2d37" stroke-width="1.51"/><path d="M872,-79L812,-4L878,101Z" fill="#1e2f38" stroke="#1e2f38" stroke-width="1.51"/><path d="M812,-4L695,-34L695,139Z" fill="#1a272f" stroke="#1a272f" stroke-width="1.51"/><path d="M530,160L344,29L450,221Z" fill="#0f1418" stroke="#0f1418" stroke-width="1.51"/><path d="M448,495L460,624L579,505Z" fill="#223440" stroke="#223440" stroke-width="1.51"/><path d="M306,487L460,624L448,495Z" fill="#1f2d38" stroke="#1f2d38" stroke-width="1.51"/><path d="M1010,11L872,-79L878,101Z" fill="#20333e" stroke="#20333e" stroke-width="1.51"/><path d="M1013,586L957,329L869,488Z" fill="#2e4c5e" stroke="#2e4c5e" stroke-width="1.51"/><path d="M695,-34L508,-12L695,139Z" fill="#172127" stroke="#172127" stroke-width="1.51"/><path d="M450,221L295,284L371,414Z" fill="#13181e" stroke="#13181e" stroke-width="1.51"/><path d="M221,208L295,284L254,87Z" fill="#0c1015" stroke="#0c1015" stroke-width="1.51"/><path d="M371,414L306,487L448,495Z" fill="#1b262f" stroke="#1b262f" stroke-width="1.51"/><path d="M710,673L773,726L822,498Z" fill="#304f62" stroke="#304f62" stroke-width="1.51"/><path d="M664,807L773,726L710,673Z" fill="#315366" stroke="#315366" stroke-width="1.51"/><path d="M981,642L1013,586L869,488Z" fill="#33566b" stroke="#33566b" stroke-width="1.51"/><path d="M163,396L306,487L371,414Z" fill="#19242b" stroke="#19242b" stroke-width="1.51"/><path d="M773,726L981,642L822,498Z" fill="#325469" stroke="#325469" stroke-width="1.51"/><path d="M695,-34L666,-146L508,-12Z" fill="#162126" stroke="#162126" stroke-width="1.51"/><path d="M812,-4L841,-160L695,-34Z" fill="#1b2b33" stroke="#1b2b33" stroke-width="1.51"/><path d="M878,101L924,239L1065,76Z" fill="#223440" stroke="#223440" stroke-width="1.51"/><path d="M1065,76L924,239L1042,298Z" fill="#243745" stroke="#243745" stroke-width="1.51"/><path d="M1191,257L1065,76L1042,298Z" fill="#263b49" stroke="#263b49" stroke-width="1.51"/><path d="M508,-12L344,29L530,160Z" fill="#10161a" stroke="#10161a" stroke-width="1.51"/><path d="M508,-12L353,8L344,29Z" fill="#0d1316" stroke="#0d1316" stroke-width="1.51"/><path d="M518,-187L353,8L508,-12Z" fill="#10171a" stroke="#10171a" stroke-width="1.51"/><path d="M460,624L664,807L710,673Z" fill="#2e4a5c" stroke="#2e4a5c" stroke-width="1.51"/><path d="M1036,794L1052,675L981,642Z" fill="#3b6881" stroke="#3b6881" stroke-width="1.51"/><path d="M464,804L664,807L460,624Z" fill="#2b4656" stroke="#2b4656" stroke-width="1.51"/><path d="M841,-160L666,-146L695,-34Z" fill="#19282f" stroke="#19282f" stroke-width="1.51"/><path d="M295,284L163,396L371,414Z" fill="#161e25" stroke="#161e25" stroke-width="1.51"/><path d="M254,87L295,284L450,221Z" fill="#0c1014" stroke="#0c1014" stroke-width="1.51"/><path d="M254,87L450,221L344,29Z" fill="#0c1115" stroke="#0c1115" stroke-width="1.51"/><path d="M981,642L1052,675L1013,586Z" fill="#386179" stroke="#386179" stroke-width="1.51"/><path d="M1285,520L1274,318L1083,330Z" fill="#314f60" stroke="#314f60" stroke-width="1.51"/><path d="M1036,794L981,642L773,726Z" fill="#396279" stroke="#396279" stroke-width="1.51"/><path d="M1083,330L1191,257L1042,298Z" fill="#2b4353" stroke="#2b4353" stroke-width="1.51"/><path d="M1274,318L1191,257L1083,330Z" fill="#2c4655" stroke="#2c4655" stroke-width="1.51"/><path d="M260,-8L254,87L344,29Z" fill="#0c1215" stroke="#0c1215" stroke-width="1.51"/><path d="M306,487L277,626L460,624Z" fill="#20303c" stroke="#20303c" stroke-width="1.51"/><path d="M184,556L277,626L306,487Z" fill="#1e2f39" stroke="#1e2f39" stroke-width="1.51"/><path d="M277,626L312,672L460,624Z" fill="#233642" stroke="#233642" stroke-width="1.51"/><path d="M872,-79L841,-160L812,-4Z" fill="#1d2f38" stroke="#1d2f38" stroke-width="1.51"/><path d="M982,-155L841,-160L872,-79Z" fill="#1e333c" stroke="#1e333c" stroke-width="1.51"/><path d="M664,807L773,845L773,726Z" fill="#345669" stroke="#345669" stroke-width="1.51"/><path d="M664,807L607,933L773,845Z" fill="#345465" stroke="#345465" stroke-width="1.51"/><path d="M312,672L464,804L460,624Z" fill="#273d4b" stroke="#273d4b" stroke-width="1.51"/><path d="M134,322L163,396L295,284Z" fill="#141c21" stroke="#141c21" stroke-width="1.51"/><path d="M134,322L295,284L221,208Z" fill="#10161b" stroke="#10161b" stroke-width="1.51"/><path d="M666,-146L518,-187L508,-12Z" fill="#141d22" stroke="#141d22" stroke-width="1.51"/><path d="M353,8L260,-8L344,29Z" fill="#0c1215" stroke="#0c1215" stroke-width="1.51"/><path d="M841,-160L518,-187L666,-146Z" fill="#17242b" stroke="#17242b" stroke-width="1.51"/><path d="M116,268L134,322L221,208Z" fill="#10161a" stroke="#10161a" stroke-width="1.51"/><path d="M403,-256L260,-8L353,8Z" fill="#0b1315" stroke="#0b1315" stroke-width="1.51"/><path d="M163,396L184,556L306,487Z" fill="#1b2831" stroke="#1b2831" stroke-width="1.51"/><path d="M275,824L343,847L312,672Z" fill="#283d4a" stroke="#283d4a" stroke-width="1.51"/><path d="M116,268L221,208L97,81Z" fill="#0c1215" stroke="#0c1215" stroke-width="1.51"/><path d="M163,396L114,501L184,556Z" fill="#1b2931" stroke="#1b2931" stroke-width="1.51"/><path d="M1010,11L982,-155L872,-79Z" fill="#203641" stroke="#203641" stroke-width="1.51"/><path d="M841,-160L403,-256L518,-187Z" fill="#142025" stroke="#142025" stroke-width="1.51"/><path d="M1258,-100L982,-155L1010,11Z" fill="#243d4a" stroke="#243d4a" stroke-width="1.51"/><path d="M1258,-100L1010,11L1065,76Z" fill="#253d4a" stroke="#253d4a" stroke-width="1.51"/><path d="M1285,520L1083,330L1013,586Z" fill="#33566a" stroke="#33566a" stroke-width="1.51"/><path d="M972,879L1036,794L773,726Z" fill="#3a647a" stroke="#3a647a" stroke-width="1.51"/><path d="M1191,257L1226,108L1065,76Z" fill="#273d4a" stroke="#273d4a" stroke-width="1.51"/><path d="M1191,257L1274,318L1226,108Z" fill="#29404d" stroke="#29404d" stroke-width="1.51"/><path d="M1285,520L1013,586L1052,675Z" fill="#386178" stroke="#386178" stroke-width="1.51"/><path d="M-62,343L114,501L163,396Z" fill="#18242a" stroke="#18242a" stroke-width="1.51"/><path d="M97,81L221,208L254,87Z" fill="#0c1215" stroke="#0c1215" stroke-width="1.51"/><path d="M-62,343L163,396L134,322Z" fill="#151e23" stroke="#151e23" stroke-width="1.51"/><path d="M129,631L312,672L277,626Z" fill="#233743" stroke="#233743" stroke-width="1.51"/><path d="M575,1014L607,933L464,804Z" fill="#314c5b" stroke="#314c5b" stroke-width="1.51"/><path d="M464,804L607,933L664,807Z" fill="#304d5c" stroke="#304d5c" stroke-width="1.51"/><path d="M773,845L972,879L773,726Z" fill="#385f73" stroke="#385f73" stroke-width="1.51"/><path d="M343,847L464,804L312,672Z" fill="#273d4a" stroke="#273d4a" stroke-width="1.51"/><path d="M815,940L972,879L773,845Z" fill="#3a6275" stroke="#3a6275" stroke-width="1.51"/><path d="M607,933L815,940L773,845Z" fill="#365a6b" stroke="#365a6b" stroke-width="1.51"/><path d="M1187,806L1052,675L1036,794Z" fill="#3f6d86" stroke="#3f6d86" stroke-width="1.51"/><path d="M1264,722L1285,520L1052,675Z" fill="#3c687f" stroke="#3c687f" stroke-width="1.51"/><path d="M129,631L277,626L184,556Z" fill="#21333f" stroke="#21333f" stroke-width="1.51"/><path d="M114,501L129,631L184,556Z" fill="#1f303a" stroke="#1f303a" stroke-width="1.51"/><path d="M129,631L275,824L312,672Z" fill="#253c49" stroke="#253c49" stroke-width="1.51"/><path d="M116,268L-62,343L134,322Z" fill="#131a1f" stroke="#131a1f" stroke-width="1.51"/><path d="M260,-8L97,81L254,87Z" fill="#0b1215" stroke="#0b1215" stroke-width="1.51"/><path d="M126,-113L97,81L260,-8Z" fill="#0b1315" stroke="#0b1315" stroke-width="1.51"/><path d="M518,-187L403,-256L353,8Z" fill="#0e1618" stroke="#0e1618" stroke-width="1.51"/><path d="M1110,-270L403,-256L841,-160Z" fill="#1a2c34" stroke="#1a2c34" stroke-width="1.51"/><path d="M1285,520L1364,358L1274,318Z" fill="#335262" stroke="#335262" stroke-width="1.51"/><path d="M1274,318L1399,133L1226,108Z" fill="#29404b" stroke="#29404b" stroke-width="1.51"/><path d="M815,940L933,967L972,879Z" fill="#3d677b" stroke="#3d677b" stroke-width="1.51"/><path d="M1008,983L1187,806L1036,794Z" fill="#417088" stroke="#417088" stroke-width="1.51"/><path d="M857,1052L933,967L815,940Z" fill="#3d6679" stroke="#3d6679" stroke-width="1.51"/><path d="M1008,983L1036,794L972,879Z" fill="#3f6d83" stroke="#3f6d83" stroke-width="1.51"/><path d="M1285,520L1361,486L1364,358Z" fill="#36596a" stroke="#36596a" stroke-width="1.51"/><path d="M1384,608L1361,486L1285,520Z" fill="#3a6175" stroke="#3a6175" stroke-width="1.51"/><path d="M1187,806L1264,722L1052,675Z" fill="#3f6e87" stroke="#3f6e87" stroke-width="1.51"/><path d="M607,933L575,1014L815,940Z" fill="#365766" stroke="#365766" stroke-width="1.51"/><path d="M552,1038L575,1014L464,804Z" fill="#314d5a" stroke="#314d5a" stroke-width="1.51"/><path d="M552,1038L464,804L340,988Z" fill="#2d4753" stroke="#2d4753" stroke-width="1.51"/><path d="M1399,133L1258,-100L1226,108Z" fill="#29414c" stroke="#29414c" stroke-width="1.51"/><path d="M1226,108L1258,-100L1065,76Z" fill="#273f4b" stroke="#273f4b" stroke-width="1.51"/><path d="M1364,358L1407,280L1274,318Z" fill="#304b5a" stroke="#304b5a" stroke-width="1.51"/><path d="M1569,381L1407,280L1364,358Z" fill="#324f5d" stroke="#324f5d" stroke-width="1.51"/><path d="M634,1145L857,1052L815,940Z" fill="#3c6171" stroke="#3c6171" stroke-width="1.51"/><path d="M340,988L464,804L343,847Z" fill="#2a404c" stroke="#2a404c" stroke-width="1.51"/><path d="M197,-212L126,-113L260,-8Z" fill="#0b1416" stroke="#0b1416" stroke-width="1.51"/><path d="M933,967L1008,983L972,879Z" fill="#3f6c81" stroke="#3f6c81" stroke-width="1.51"/><path d="M952,1132L1008,983L933,967Z" fill="#426f82" stroke="#426f82" stroke-width="1.51"/><path d="M1258,-100L1110,-270L982,-155Z" fill="#253f4a" stroke="#253f4a" stroke-width="1.51"/><path d="M982,-155L1110,-270L841,-160Z" fill="#213944" stroke="#213944" stroke-width="1.51"/><path d="M1407,280L1399,133L1274,318Z" fill="#2c4450" stroke="#2c4450" stroke-width="1.51"/><path d="M403,-256L197,-212L260,-8Z" fill="#0b1415" stroke="#0b1415" stroke-width="1.51"/><path d="M634,1145L815,940L575,1014Z" fill="#375968" stroke="#375968" stroke-width="1.51"/><path d="M1361,486L1474,479L1364,358Z" fill="#375969" stroke="#375969" stroke-width="1.51"/><path d="M1264,722L1384,608L1285,520Z" fill="#3d687e" stroke="#3d687e" stroke-width="1.51"/><path d="M1498,639L1384,608L1435,785Z" fill="#437288" stroke="#437288" stroke-width="1.51"/><path d="M275,824L340,988L343,847Z" fill="#2a414c" stroke="#2a414c" stroke-width="1.51"/><path d="M223,1005L340,988L275,824Z" fill="#2b434d" stroke="#2b434d" stroke-width="1.51"/><path d="M114,501L-76,572L129,631Z" fill="#1f313b" stroke="#1f313b" stroke-width="1.51"/><path d="M129,631L106,846L275,824Z" fill="#263e4a" stroke="#263e4a" stroke-width="1.51"/><path d="M-109,284L-62,343L116,268Z" fill="#121a1e" stroke="#121a1e" stroke-width="1.51"/><path d="M-109,284L116,268L97,81Z" fill="#0b1215" stroke="#0b1215" stroke-width="1.51"/><path d="M1258,-100L1275,-188L1110,-270Z" fill="#26424c" stroke="#26424c" stroke-width="1.51"/><path d="M1432,-85L1275,-188L1258,-100Z" fill="#28434d" stroke="#28434d" stroke-width="1.51"/><path d="M-87,606L106,846L129,631Z" fill="#243d49" stroke="#243d49" stroke-width="1.51"/><path d="M1384,608L1474,479L1361,486Z" fill="#3a6173" stroke="#3a6173" stroke-width="1.51"/><path d="M1407,280L1483,166L1399,133Z" fill="#2c424d" stroke="#2c424d" stroke-width="1.51"/><path d="M-108,-20L-99,71L97,81Z" fill="#0b1416" stroke="#0b1416" stroke-width="1.51"/><path d="M197,-212L99,-208L126,-113Z" fill="#0b1516" stroke="#0b1516" stroke-width="1.51"/><path d="M403,-256L99,-208L197,-212Z" fill="#0a1416" stroke="#0a1416" stroke-width="1.51"/><path d="M-99,71L-109,284L97,81Z" fill="#0b1315" stroke="#0b1315" stroke-width="1.51"/><path d="M-62,343L-76,572L114,501Z" fill="#1a2931" stroke="#1a2931" stroke-width="1.51"/><path d="M1399,133L1432,-85L1258,-100Z" fill="#2a434d" stroke="#2a434d" stroke-width="1.51"/><path d="M1569,381L1483,166L1407,280Z" fill="#304a56" stroke="#304a56" stroke-width="1.51"/><path d="M-237,507L-76,572L-62,343Z" fill="#1a2a31" stroke="#1a2a31" stroke-width="1.51"/><path d="M952,1132L1056,1059L1008,983Z" fill="#447387" stroke="#447387" stroke-width="1.51"/><path d="M1008,983L1153,1018L1187,806Z" fill="#44748a" stroke="#44748a" stroke-width="1.51"/><path d="M1187,806L1435,785L1264,722Z" fill="#437289" stroke="#437289" stroke-width="1.51"/><path d="M552,1038L634,1145L575,1014Z" fill="#355461" stroke="#355461" stroke-width="1.51"/><path d="M857,1052L952,1132L933,967Z" fill="#406c7e" stroke="#406c7e" stroke-width="1.51"/><path d="M295,1085L634,1145L552,1038Z" fill="#334e59" stroke="#334e59" stroke-width="1.51"/><path d="M340,988L295,1085L552,1038Z" fill="#2e4650" stroke="#2e4650" stroke-width="1.51"/><path d="M106,846L223,1005L275,824Z" fill="#29424c" stroke="#29424c" stroke-width="1.51"/><path d="M1056,1059L1153,1018L1008,983Z" fill="#45768b" stroke="#45768b" stroke-width="1.51"/><path d="M1384,608L1498,639L1474,479Z" fill="#3e687b" stroke="#3e687b" stroke-width="1.51"/><path d="M-76,572L-87,606L129,631Z" fill="#20353f" stroke="#20353f" stroke-width="1.51"/><path d="M120,1108L223,1086L223,1005Z" fill="#2d4750" stroke="#2d4750" stroke-width="1.51"/><path d="M-237,507L-87,606L-76,572Z" fill="#1e323a" stroke="#1e323a" stroke-width="1.51"/><path d="M-108,-20L97,81L126,-113Z" fill="#0b1416" stroke="#0b1416" stroke-width="1.51"/><path d="M1056,1059L1239,1164L1153,1018Z" fill="#48798d" stroke="#48798d" stroke-width="1.51"/><path d="M634,1145L952,1132L857,1052Z" fill="#3f6676" stroke="#3f6676" stroke-width="1.51"/><path d="M1474,-36L1432,-85L1399,133Z" fill="#2b444e" stroke="#2b444e" stroke-width="1.51"/><path d="M223,1005L295,1085L340,988Z" fill="#2d464f" stroke="#2d464f" stroke-width="1.51"/><path d="M1474,479L1569,381L1364,358Z" fill="#365766" stroke="#365766" stroke-width="1.51"/><path d="M1435,785L1384,608L1264,722Z" fill="#437289" stroke="#437289" stroke-width="1.51"/><path d="M1483,166L1474,-36L1399,133Z" fill="#2b444e" stroke="#2b444e" stroke-width="1.51"/><path d="M1429,987L1435,785L1187,806Z" fill="#46768c" stroke="#46768c" stroke-width="1.51"/><path d="M1432,-85L1349,-243L1275,-188Z" fill="#28444d" stroke="#28444d" stroke-width="1.51"/><path d="M1275,-188L1349,-243L1110,-270Z" fill="#26424d" stroke="#26424d" stroke-width="1.51"/><path d="M1516,-218L1349,-243L1432,-85Z" fill="#2a464e" stroke="#2a464e" stroke-width="1.51"/><path d="M-99,71L-202,259L-109,284Z" fill="#0b1315" stroke="#0b1315" stroke-width="1.51"/><path d="M-36,-181L-108,-20L126,-113Z" fill="#0a1516" stroke="#0a1516" stroke-width="1.51"/><path d="M1607,498L1569,381L1474,479Z" fill="#3a5d6d" stroke="#3a5d6d" stroke-width="1.51"/><path d="M1483,166L1567,22L1474,-36Z" fill="#2c464f" stroke="#2c464f" stroke-width="1.51"/><path d="M223,1005L223,1086L295,1085Z" fill="#2d4650" stroke="#2d4650" stroke-width="1.51"/><path d="M295,1085L120,1108L634,1145Z" fill="#2f4850" stroke="#2f4850" stroke-width="1.51"/><path d="M8,952L223,1005L106,846Z" fill="#2a444d" stroke="#2a444d" stroke-width="1.51"/><path d="M99,-208L-36,-181L126,-113Z" fill="#0b1516" stroke="#0b1516" stroke-width="1.51"/><path d="M-199,37L-202,259L-99,71Z" fill="#0b1416" stroke="#0b1416" stroke-width="1.51"/><path d="M-280,338L-237,507L-62,343Z" fill="#162329" stroke="#162329" stroke-width="1.51"/><path d="M-12,945L106,846L-93,879Z" fill="#29434d" stroke="#29434d" stroke-width="1.51"/><path d="M-12,945L8,952L106,846Z" fill="#29434d" stroke="#29434d" stroke-width="1.51"/><path d="M1474,-36L1516,-218L1432,-85Z" fill="#2b464f" stroke="#2b464f" stroke-width="1.51"/><path d="M1601,35L1567,22L1483,166Z" fill="#2d4650" stroke="#2d4650" stroke-width="1.51"/><path d="M1715,177L1601,35L1483,166Z" fill="#2e4750" stroke="#2e4750" stroke-width="1.51"/><path d="M1498,639L1607,498L1474,479Z" fill="#3e6578" stroke="#3e6578" stroke-width="1.51"/><path d="M1642,699L1607,498L1498,639Z" fill="#426f82" stroke="#426f82" stroke-width="1.51"/><path d="M8,952L120,1108L223,1005Z" fill="#2c464f" stroke="#2c464f" stroke-width="1.51"/><path d="M-93,879L106,846L-87,606Z" fill="#26404b" stroke="#26404b" stroke-width="1.51"/><path d="M-225,-63L-199,37L-108,-20Z" fill="#0b1616" stroke="#0b1616" stroke-width="1.51"/><path d="M-108,-20L-199,37L-99,71Z" fill="#0b1516" stroke="#0b1516" stroke-width="1.51"/><path d="M-280,338L-109,284L-202,259Z" fill="#111a1e" stroke="#111a1e" stroke-width="1.51"/><path d="M-280,338L-62,343L-109,284Z" fill="#131c20" stroke="#131c20" stroke-width="1.51"/><path d="M1650,-74L1516,-218L1474,-36Z" fill="#2c4850" stroke="#2c4850" stroke-width="1.51"/><path d="M1665,357L1483,166L1569,381Z" fill="#324f5a" stroke="#324f5a" stroke-width="1.51"/><path d="M-227,794L-93,879L-87,606Z" fill="#25404b" stroke="#25404b" stroke-width="1.51"/><path d="M-51,1083L8,952L-12,945Z" fill="#2b474f" stroke="#2b474f" stroke-width="1.51"/><path d="M-51,1083L120,1108L8,952Z" fill="#2c4750" stroke="#2c4750" stroke-width="1.51"/><path d="M223,1086L120,1108L295,1085Z" fill="#2e4850" stroke="#2e4850" stroke-width="1.51"/><path d="M1607,498L1665,357L1569,381Z" fill="#395a68" stroke="#395a68" stroke-width="1.51"/><path d="M-199,37L-280,338L-202,259Z" fill="#0b1316" stroke="#0b1316" stroke-width="1.51"/><path d="M1435,785L1642,699L1498,639Z" fill="#46768b" stroke="#46768b" stroke-width="1.51"/><path d="M1607,498L1642,699L1665,357Z" fill="#3f6676" stroke="#3f6676" stroke-width="1.51"/><path d="M1153,1018L1429,987L1187,806Z" fill="#47778c" stroke="#47778c" stroke-width="1.51"/><path d="M1239,1164L1429,987L1153,1018Z" fill="#4a7c8e" stroke="#4a7c8e" stroke-width="1.51"/><path d="M1650,-74L1474,-36L1567,22Z" fill="#2d4850" stroke="#2d4850" stroke-width="1.51"/><path d="M-280,338L-248,635L-237,507Z" fill="#1a2d34" stroke="#1a2d34" stroke-width="1.51"/><path d="M-237,507L-248,635L-87,606Z" fill="#1e343e" stroke="#1e343e" stroke-width="1.51"/><path d="M634,1145L1239,1164L952,1132Z" fill="#447183" stroke="#447183" stroke-width="1.51"/><path d="M952,1132L1239,1164L1056,1059Z" fill="#48798d" stroke="#48798d" stroke-width="1.51"/><path d="M-199,37L-225,-63L-280,338Z" fill="#0a1416" stroke="#0a1416" stroke-width="1.51"/><path d="M-36,-181L-225,-63L-108,-20Z" fill="#0a1616" stroke="#0a1616" stroke-width="1.51"/><path d="M1566,874L1642,699L1435,785Z" fill="#48798d" stroke="#48798d" stroke-width="1.51"/><path d="M1553,900L1566,874L1435,785Z" fill="#497b8e" stroke="#497b8e" stroke-width="1.51"/><path d="M1553,900L1435,785L1429,987Z" fill="#4a7b8e" stroke="#4a7b8e" stroke-width="1.51"/><path d="M1680,1121L1553,900L1429,987Z" fill="#4e8092" stroke="#4e8092" stroke-width="1.51"/><path d="M-183,1030L-51,1083L-12,945Z" fill="#2b4750" stroke="#2b4750" stroke-width="1.51"/><path d="M-248,635L-227,794L-87,606Z" fill="#223d49" stroke="#223d49" stroke-width="1.51"/><path d="M1601,35L1650,-74L1567,22Z" fill="#2e4850" stroke="#2e4850" stroke-width="1.51"/><path d="M1665,357L1715,177L1483,166Z" fill="#304953" stroke="#304953" stroke-width="1.51"/><path d="M1642,699L1715,177L1665,357Z" fill="#3a5c69" stroke="#3a5c69" stroke-width="1.51"/><path d="M1715,177L1650,-74L1601,35Z" fill="#2e4951" stroke="#2e4951" stroke-width="1.51"/><path d="M-227,794L-189,896L-93,879Z" fill="#28434d" stroke="#28434d" stroke-width="1.51"/><path d="M-183,1030L-12,945L-93,879Z" fill="#2a464e" stroke="#2a464e" stroke-width="1.51"/><path d="M1239,1164L1397,1154L1429,987Z" fill="#4d7f91" stroke="#4d7f91" stroke-width="1.51"/><path d="M1662,886L1566,874L1553,900Z" fill="#4b7d90" stroke="#4b7d90" stroke-width="1.51"/><path d="M1662,886L1645,857L1566,874Z" fill="#4c7e90" stroke="#4c7e90" stroke-width="1.51"/><path d="M1566,874L1645,857L1642,699Z" fill="#4a7b8f" stroke="#4a7b8f" stroke-width="1.51"/><path d="M1642,699L1662,886L1715,177Z" fill="#426e80" stroke="#426e80" stroke-width="1.51"/><path d="M1715,177L1664,-178L1650,-74Z" fill="#2e4a51" stroke="#2e4a51" stroke-width="1.51"/><path d="M1650,-74L1664,-178L1516,-218Z" fill="#2d4a51" stroke="#2d4a51" stroke-width="1.51"/><path d="M1680,1121L1662,886L1553,900Z" fill="#4e8192" stroke="#4e8192" stroke-width="1.51"/><path d="M1645,857L1662,886L1642,699Z" fill="#4b7c8f" stroke="#4b7c8f" stroke-width="1.51"/><path d="M-36,-181L-265,-246L-225,-63Z" fill="#0a1717" stroke="#0a1717" stroke-width="1.51"/><path d="M-225,-63L-265,-246L-280,338Z" fill="#0a1616" stroke="#0a1616" stroke-width="1.51"/><path d="M99,-208L-265,-246L-36,-181Z" fill="#0a1617" stroke="#0a1617" stroke-width="1.51"/><path d="M403,-256L-265,-246L99,-208Z" fill="#0a1616" stroke="#0a1616" stroke-width="1.51"/><path d="M1110,-270L-265,-246L403,-256Z" fill="#0d1618" stroke="#0d1618" stroke-width="1.51"/><path d="M1397,1154L1454,1155L1429,987Z" fill="#4e8192" stroke="#4e8192" stroke-width="1.51"/><path d="M1239,1164L1454,1155L1397,1154Z" fill="#4e8192" stroke="#4e8192" stroke-width="1.51"/><path d="M-189,896L-183,1030L-93,879Z" fill="#29454e" stroke="#29454e" stroke-width="1.51"/><path d="M-227,794L-183,1030L-189,896Z" fill="#28454e" stroke="#28454e" stroke-width="1.51"/><path d="M1454,1155L1680,1121L1429,987Z" fill="#4f8393" stroke="#4f8393" stroke-width="1.51"/><path d="M1662,886L1680,1121L1715,177Z" fill="#497b8e" stroke="#497b8e" stroke-width="1.51"/></svg>