<svg width="250" height="250" viewBox="0 0 250 250" fill="none" xmlns="http://www.w3.org/2000/svg">
<path d="M120.422 32.2812C120.406 32.2969 118.391 32.3594 115.938 32.4062C113.484 32.4688 111.063 32.5469 110.547 32.5781C110.031 32.6094 108.797 32.6719 107.813 32.7188C105.109 32.8594 102.344 33.1094 100.641 33.3594C100.328 33.4062 99.7969 33.4688 99.4532 33.5156C99.1094 33.5625 98.6563 33.625 98.4376 33.6719C98.2188 33.7188 97.8438 33.7812 97.5782 33.8281C97.3282 33.8594 96.9376 33.9375 96.7188 33.9844C96.5001 34.0312 96.1251 34.1094 95.8751 34.1562C95.6251 34.1875 95.3751 34.2656 95.3126 34.2969C95.2657 34.3281 95.0469 34.3906 94.8282 34.4219C93.1407 34.7344 90.5157 35.6875 88.0469 36.8906C82.0157 39.8125 77.7969 43.8594 75.1876 49.2344C74.4844 50.6562 73.5469 53.0781 73.3438 53.9375C73.3126 54.0938 73.2501 54.3438 73.2188 54.4844C72.6563 56.6406 72.2969 58.1094 72.2657 58.3594C72.1719 58.875 71.8751 60.5156 71.7969 60.9375C71.7501 61.1562 71.6719 61.6406 71.6407 62.0312C71.5938 62.4219 71.5157 62.8438 71.4844 62.9688C71.4532 63.0938 71.3751 63.5938 71.3282 64.0625C71.2813 64.5312 71.2032 65.0938 71.1719 65.3125C71.0782 65.9219 70.8751 67.7344 70.7032 69.4531C70.6563 69.9688 70.5938 70.5938 70.5469 70.8594C70.5157 71.1094 70.4376 71.9531 70.3907 72.7344C70.2344 74.9531 70.2188 75.1719 69.9844 76.3594C69.7969 77.3438 69.7344 77.5 69.4532 77.5C69.2657 77.5 68.7344 77.6875 68.2657 77.9219C67.0001 78.5781 66.0626 80.1562 65.7032 82.2656C65.6563 82.5156 65.5938 82.8906 65.5626 83.0781C65.1251 85.25 65.1876 88.8594 65.7188 90.5C65.7657 90.6719 65.8282 90.9688 65.8594 91.1406C65.9688 92.0625 67.2188 95.0938 67.8438 95.9844C68.1407 96.3906 68.1563 96.7188 68.2032 100.359C68.2188 102.531 68.2813 104.484 68.3438 104.719C68.5626 105.688 68.6719 106.453 69.0001 109.219C69.1094 110.234 69.9532 112.531 70.2969 112.812C70.3594 112.859 70.5313 113.203 70.6876 113.594C71.2344 114.984 71.6563 115.719 72.5782 116.953C73.0938 117.641 73.5626 118.219 73.6251 118.25C73.6876 118.281 74.2032 118.953 74.7813 119.734C75.3751 120.531 76.2032 121.562 76.6251 122.031C77.0626 122.5 77.7032 123.281 78.0313 123.75C78.3594 124.219 79.0313 124.922 79.5001 125.312C79.9688 125.703 80.8907 126.547 81.5469 127.188C83.9532 129.578 85.2344 130.672 85.9688 130.984C86.6094 131.25 86.7969 131.438 87.3594 132.406C87.7188 133.016 88.2657 133.781 88.5782 134.109C89.1407 134.703 90.1094 135.312 90.5001 135.312C90.6251 135.312 90.8438 135.547 91.0157 135.812C91.5157 136.672 92.8126 137.938 93.2813 138.047L93.7344 138.141L93.3126 138.828C93.0469 139.281 92.8282 139.484 92.6407 139.453C92.3751 139.406 87.9532 139.297 79.5001 139.141L75.3282 139.062L74.2813 139.453C72.9376 139.953 72.8282 140.062 72.9063 140.672C72.9376 140.953 73.0001 141.453 73.0469 141.797C73.1876 143.109 73.2969 144 73.3751 144.547C73.4376 145.094 73.5001 145.594 73.6719 147.266C73.7188 147.688 73.7969 148.219 73.8282 148.438C73.8751 148.656 73.9376 149.266 73.9844 149.766C74.0313 150.281 74.0938 150.906 74.1407 151.172C74.1719 151.422 74.2501 152.062 74.2969 152.578C74.3594 153.094 74.4376 153.688 74.4532 153.906C74.4844 154.125 74.5469 154.719 74.6094 155.234C74.6563 155.75 74.7344 156.344 74.7657 156.562C74.7969 156.781 74.8751 157.344 74.9219 157.812C74.9688 158.281 75.0313 158.922 75.0782 159.219C75.1094 159.516 75.1876 160.188 75.2344 160.703C75.2969 161.219 75.3594 161.812 75.3907 162.031C75.4219 162.25 75.5001 162.875 75.5469 163.438C75.6094 164 75.6876 164.594 75.7188 164.766C75.7501 164.938 75.8282 165.531 75.8751 166.094C75.9219 166.703 76.0469 167.156 76.1719 167.234C76.2969 167.297 76.3594 167.5 76.3126 167.703C76.2813 167.891 76.2032 168.25 76.1719 168.516C76.1251 168.766 76.0469 169.094 76.0001 169.234C75.9532 169.406 76.0782 169.547 76.3594 169.656C76.7344 169.797 78.8594 170.375 79.7032 170.562C79.8594 170.594 80.1407 170.656 80.3282 170.703C80.5001 170.734 80.7813 170.812 80.9376 170.859C81.0938 170.906 81.3751 170.984 81.5469 171.016C81.8907 171.094 81.9844 171.125 83.2032 171.453C83.9688 171.656 83.9688 171.656 84.0157 172.359C84.0313 172.734 84.2344 173.406 84.4532 173.828C84.8751 174.672 86.3751 176.297 87.0469 176.656C87.5157 176.891 88.7032 177.188 89.5313 177.266C92.5938 177.578 92.7657 177.547 93.2032 176.734C93.4532 176.234 93.5626 174.641 93.3907 174.109C93.2657 173.781 93.2969 173.766 93.9376 173.828C94.6094 173.891 95.7032 173.984 97.7344 174.141C98.3438 174.188 99.1407 174.266 99.5313 174.297C99.9219 174.328 100.766 174.406 101.406 174.453C102.047 174.5 102.719 174.562 102.891 174.609C103.063 174.641 103.25 174.672 103.297 174.672C103.344 174.688 103.375 174.875 103.344 175.109C103.313 175.359 103.25 176.109 103.203 176.797C103.156 177.484 103.078 178.219 103.047 178.438C102.984 178.828 102.875 180.078 102.734 181.797C102.688 182.312 102.609 183.016 102.563 183.359C102.516 183.703 102.453 184.266 102.422 184.609C102.391 184.953 102.328 185.547 102.266 185.938C102.219 186.328 102.141 186.953 102.094 187.344C101.969 188.438 101.859 189.266 101.797 189.688C101.766 189.906 101.688 190.562 101.641 191.172C101.578 191.766 101.516 192.438 101.484 192.656C101.453 192.875 101.391 193.578 101.344 194.219C101.281 194.859 101.203 195.641 101.172 195.938C101.125 196.234 101.063 196.875 101.016 197.344C100.828 199.406 100.781 199.781 100.703 200.344C100.656 200.672 100.578 201.234 100.531 201.594C100.469 202.047 100.266 202.453 99.9063 202.844C99.6094 203.172 99.3751 203.516 99.3751 203.609C99.3751 203.703 99.2032 203.922 98.9688 204.094C98.7501 204.266 98.6094 204.453 98.6719 204.5C98.7188 204.547 98.6407 204.75 98.5157 204.953C98.3751 205.156 98.2969 205.438 98.3126 205.578C98.3438 205.797 98.1876 205.875 97.4376 205.969C96.4376 206.094 96.0938 206.297 96.0938 206.719C96.0938 207.062 95.7657 207.219 94.8751 207.281C94.2501 207.328 93.2813 207.75 93.2813 207.984C93.2813 208.031 93.1094 208.266 92.8907 208.516C92.5782 208.828 92.5313 208.984 92.6563 209.141C92.7813 209.297 92.6876 209.422 92.2188 209.688C91.8907 209.875 91.3282 210.344 91.0001 210.734C90.0782 211.797 89.5001 212.391 89.0157 212.734C88.5157 213.094 88.4063 213.641 88.3751 215.703C88.3438 217.234 88.3438 217.219 87.3907 216.969C86.9532 216.859 86.7969 216.812 85.1563 216.438C84.4219 216.266 83.4063 216.078 82.8907 216.016C82.3751 215.953 81.7813 215.891 81.5626 215.859C81.3438 215.844 80.7501 215.766 80.2344 215.719C78.5938 215.531 77.5938 215.219 77.7188 214.922C78.3594 213.516 78.6251 212.641 78.6719 211.781C78.7501 209.984 78.0001 208.578 76.6407 207.953L76.0001 207.672L76.0157 206.766C76.0313 206.25 75.9219 205.5 75.7501 205.016C75.5938 204.547 75.4844 204.141 75.5157 204.109C75.5469 204.094 76.1094 204.031 76.7657 203.984C78.2344 203.891 78.7501 203.812 79.8438 203.484C80.3126 203.344 80.7813 203.219 80.8751 203.188C81.1719 203.141 82.8594 202.031 83.3282 201.594C83.5626 201.359 83.9844 200.844 84.2344 200.438L84.7188 199.688L85.3751 200.234C85.7344 200.531 86.4376 200.953 86.9376 201.188C88.2657 201.797 88.7657 201.484 88.9688 199.891C89.1876 198.109 89.3282 197.672 90.6719 194.125C91.0626 193.078 91.4376 192 91.4844 191.719C91.5313 191.438 91.6094 191.141 91.6563 191.078C91.9376 190.609 92.0469 187.359 91.8282 185.922C91.5157 183.938 90.3751 181.812 88.5782 179.891C87.6094 178.859 87.1251 178.516 85.6251 177.797C84.7344 177.359 84.4219 177.25 84.0313 177.203C83.9844 177.188 83.5626 176.875 83.0938 176.5C81.4688 175.172 79.8282 174.391 78.2032 174.156C77.8438 174.094 77.3907 174.016 77.1876 173.984C75.7501 173.703 67.1876 173.594 63.5626 173.797C61.5313 173.922 60.9844 173.984 59.4219 174.312C58.4844 174.5 56.6719 175.375 55.7501 176.094C55.0938 176.594 54.5626 176.875 54.1407 176.922C50.9532 177.375 48.8438 179.438 47.5001 183.453C47.3126 184 47.1407 184.562 47.1094 184.688C47.0782 184.812 46.9844 185.234 46.9063 185.625C46.6251 186.828 46.5469 187.656 46.5313 189.125C46.5157 190.422 46.5782 191.062 46.7969 192.188C46.8907 192.703 47.1563 194.172 47.2501 194.766C47.4844 196.219 47.5469 197 47.5626 198.828C47.5782 200.953 47.7188 201.422 48.3282 201.531C48.6876 201.594 49.7344 201.031 50.6563 200.266C51.3438 199.719 51.7188 199.625 51.7188 200.016C51.7188 200.203 52.7032 201.719 52.8282 201.719C52.8907 201.719 53.1719 201.938 53.4376 202.188C54.5001 203.172 56.2813 203.781 58.7188 203.969C59.5313 204.031 59.8126 204.141 60.2501 204.531C60.8282 205.031 61.4063 205.25 61.7969 205.094C61.9844 205.031 62.0157 205.094 61.9532 205.438C61.8907 205.672 61.8126 206.453 61.7657 207.172C61.6876 208.281 61.6094 208.594 61.2188 209.125C60.7188 209.844 60.6251 210.188 60.5626 211.406C60.5001 212.641 60.8907 213.875 61.7813 215.203C61.9376 215.438 62.0469 215.656 62.0157 215.688C61.9844 215.719 61.4219 215.797 60.7657 215.844C60.1094 215.906 59.4376 215.969 59.2813 216C59.1094 216.031 58.6407 216.109 58.2032 216.156C57.7813 216.219 57.2344 216.297 57.0001 216.328C56.7501 216.375 56.3282 216.438 56.0626 216.484C55.7813 216.531 55.3751 216.609 55.1563 216.641C54.9376 216.688 54.6251 216.75 54.4532 216.781C54.2813 216.828 53.7969 216.938 53.3594 217.031C52.9376 217.125 52.4376 217.234 52.2813 217.281C52.0313 217.328 51.5001 217.484 50.6563 217.734C50.5469 217.781 50.4063 217.812 50.3438 217.828C50.2813 217.844 49.9688 217.984 49.6563 218.141C49.3282 218.297 49.0001 218.438 48.9063 218.438C48.7032 218.438 48.5157 218.594 47.4376 219.562L46.6407 220.297L46.5782 221.719C46.5157 223.375 46.6719 223.859 47.4688 224.562C47.9688 224.984 49.3751 225.734 49.8907 225.844C50.0001 225.875 50.1876 225.938 50.3126 225.984C51.0313 226.281 53.2032 226.781 54.5001 226.953C54.7657 227 55.2657 227.062 55.5938 227.109C56.1876 227.203 57.1407 227.297 58.5157 227.422C61.1407 227.641 63.0001 227.719 66.4063 227.719C69.7344 227.719 71.1094 227.672 74.5313 227.422C75.5313 227.359 77.3438 227.188 77.8907 227.109C78.1563 227.062 78.6719 227 79.0626 226.953C79.4532 226.906 79.9376 226.844 80.1563 226.797C80.3751 226.75 80.8594 226.672 81.2501 226.625C81.6407 226.578 82.0938 226.5 82.2657 226.453C82.4376 226.422 82.7501 226.359 82.9688 226.312C83.1876 226.266 83.4844 226.203 83.6251 226.156C83.7657 226.109 84.0313 226.047 84.2032 226.016C84.3907 225.969 84.6563 225.906 84.8126 225.875C84.9532 225.844 85.4219 225.734 85.8594 225.625C87.8438 225.172 89.8751 224.094 90.7657 223.031C91.2188 222.469 91.2344 222.406 91.2032 220.953C91.1876 220.125 91.1094 219.328 91.0313 219.156C90.9063 218.906 90.9376 218.875 91.3438 218.969C93.8751 219.5 100.734 219.594 104.063 219.141C104.281 219.125 104.828 219.047 105.297 218.984C105.766 218.922 106.281 218.844 106.469 218.812C106.656 218.781 107.047 218.703 107.344 218.656C107.641 218.609 108.031 218.531 108.203 218.484C108.375 218.422 108.625 218.359 108.75 218.344C109.422 218.234 109.984 218.094 110.516 217.891C110.828 217.766 111.141 217.656 111.219 217.656C111.594 217.625 113.063 217.094 115.313 216.141C116.734 215.531 118.5 214.812 119.266 214.516C120.016 214.219 120.797 213.828 121 213.641C121.359 213.312 121.375 213.219 121.313 211.688C121.281 210.797 121.219 209.938 121.188 209.766C121.156 209.594 121.109 209.359 121.109 209.25C121.094 209.141 120.922 208.875 120.703 208.656C120.484 208.438 120.266 208 120.219 207.688C120.031 206.594 120.047 205.453 120.234 205.25C120.719 204.766 120.797 204.109 121.172 198.047C121.313 195.609 121.516 192.875 121.797 189.297C121.844 188.609 121.922 187.594 121.953 187.031C122.016 186.125 122.141 184.672 122.266 183.594C122.281 183.375 122.359 182.703 122.406 182.109C122.703 178.922 122.766 178.328 122.891 177.656C122.953 177.359 123.016 176.891 123.047 176.641C123.109 176.156 123.25 175.156 123.344 174.609C123.391 174.312 123.516 174.297 125.141 174.297C126.875 174.297 127.141 174.375 127.141 174.844C127.156 174.969 127.188 175.391 127.25 175.781C127.297 176.172 127.375 176.766 127.422 177.109C127.469 177.453 127.531 177.906 127.578 178.125C127.625 178.344 127.688 178.938 127.734 179.453C127.938 181.641 128.063 182.766 128.203 183.438C128.25 183.656 128.313 184.141 128.359 184.531C128.406 184.922 128.484 185.484 128.547 185.781C128.594 186.078 128.656 187.281 128.672 188.438C128.688 189.594 128.766 191.078 128.828 191.719C128.891 192.359 128.953 193.281 128.984 193.75C129.031 194.594 129.203 197.578 129.297 199.141C129.5 202.438 129.547 203.094 129.609 203.438C129.641 203.656 129.719 204.078 129.766 204.375C129.813 204.672 129.969 205.031 130.109 205.188C130.313 205.406 130.344 205.719 130.266 206.797C130.203 207.969 130.141 208.203 129.797 208.562C129.266 209.125 129.109 209.906 129.125 211.875L129.141 213.5L129.656 213.844C129.938 214.047 130.5 214.312 130.906 214.469C132.563 215.062 134.5 215.812 135.156 216.125C136.609 216.797 137.297 217.078 138.359 217.422C139.422 217.766 140.609 218.109 141.094 218.203C141.219 218.234 141.609 218.328 141.953 218.422C142.688 218.609 143.469 218.75 145.234 218.984C147.313 219.281 149.859 219.438 152.578 219.438C154.703 219.438 157.094 219.312 157.922 219.156C158.094 219.109 158.484 219.047 158.766 219C160.344 218.734 161.438 218.359 161.797 217.969C162.016 217.719 162.078 217.391 162.078 216.438C162.078 213.562 161.891 212.891 161.031 212.422C160.719 212.25 160.234 211.766 159.938 211.328C159.656 210.891 159.031 210.266 158.547 209.938C157.906 209.5 157.719 209.281 157.766 209.062C157.875 208.672 156.578 207.359 156.078 207.312C155.875 207.312 155.641 207.281 155.547 207.266C155.469 207.234 155.203 207.219 154.969 207.203C154.672 207.188 154.484 207.062 154.344 206.766C154.078 206.219 153.531 205.938 152.672 205.938C152.031 205.938 152 205.922 152.063 205.547C152.109 205.328 152.047 205.078 151.938 204.984C151.813 204.891 151.719 204.672 151.719 204.5C151.719 204.344 151.609 204.172 151.484 204.109C151.344 204.062 151.125 203.797 151 203.531C150.859 203.266 150.563 202.875 150.344 202.656C150.109 202.438 149.906 202.125 149.891 201.953C149.859 201.484 149.703 200.172 149.609 199.375C149.563 198.984 149.484 198.312 149.453 197.891C149.406 197.453 149.344 196.859 149.297 196.562C149.266 196.266 149.188 195.562 149.125 195C149.078 194.438 149 193.812 148.984 193.594C148.969 193.375 148.891 192.75 148.844 192.188C148.672 190.344 148.453 188.406 148.359 187.812C148.328 187.594 148.266 187 148.203 186.484C148.156 185.969 148.078 185.297 148.047 185C148 184.703 147.953 184.172 147.906 183.828C147.781 182.703 147.609 181.016 147.609 180.781C147.609 180.188 147.641 180.141 147.984 180.312C148.422 180.562 149.531 180.359 151.094 179.734C151.219 179.688 151.422 179.625 151.547 179.594C151.672 179.578 151.984 179.453 152.25 179.312C154.906 178.047 156.047 177.641 157.188 177.578C159.594 177.469 160.531 177.047 162.172 175.406C162.891 174.703 163.547 173.984 163.625 173.812C163.719 173.656 163.891 173.438 164.016 173.328C164.5 172.953 164.813 171.688 164.766 170.391C164.734 169.703 164.672 168.922 164.609 168.672C164.531 168.234 164.484 167.766 164.297 165.5C164.172 163.797 163.625 161.266 163.094 159.844C162.641 158.609 162.641 158.562 163.156 158.094C163.656 157.609 163.656 157.344 163.188 155.391C162.828 153.922 162.781 153.688 162.781 153.516C162.797 153.422 162.844 152.984 162.891 152.531C162.938 152.062 162.906 151.438 162.813 151.125C162.734 150.797 162.656 150.5 162.656 150.422C162.656 150.188 161.219 147.469 160.203 145.766C159.609 144.781 158.797 143.312 158.406 142.484C157.484 140.625 156.406 138.688 156.234 138.625C156.156 138.594 156.094 138.5 156.094 138.406C156.094 138.328 155.891 137.953 155.625 137.578L155.156 136.906L155.75 136.484C156.484 135.938 157.766 134.578 158.063 134.016C158.188 133.781 158.359 133.594 158.438 133.594C158.531 133.594 158.609 133.594 158.641 133.578C160.203 133.266 161.578 132.531 162.578 131.469C162.922 131.109 163.422 130.75 163.672 130.688C163.938 130.625 164.531 130.281 165 129.922C165.469 129.562 166.047 129.141 166.266 128.969C168 127.703 169.438 126.406 170.328 125.297C170.703 124.812 171.406 123.969 171.891 123.422C172.922 122.25 177.641 116 177.781 115.641C177.828 115.5 178.094 115.078 178.375 114.688C178.922 113.922 180.156 111.578 180.234 111.125C180.266 110.984 180.297 110.859 180.313 110.859C180.344 110.859 180.406 110.578 180.531 109.859C180.594 109.562 180.703 109.219 180.766 109.078C180.844 108.938 180.938 108.547 180.984 108.203C181.031 107.859 181.109 107.469 181.156 107.344C181.203 107.219 181.266 106.891 181.297 106.641C181.344 106.375 181.422 106 181.469 105.781C181.859 104.141 182.063 99.1719 181.844 97.1094C181.781 96.625 181.844 96.375 182.125 96C182.672 95.2812 183.719 92.875 183.984 91.7188C183.984 91.6719 184.047 91.5 184.109 91.3281C184.156 91.1562 184.234 90.8438 184.281 90.625C184.328 90.4062 184.406 90.0625 184.453 89.8438C184.734 88.5781 184.813 85.9844 184.625 84.4531C184.563 83.9375 184.484 83.2969 184.453 83.0156C184.422 82.75 184.281 82.1719 184.156 81.7344C184.031 81.2969 183.953 80.9375 184 80.9375C184.156 80.9375 183.109 79.0938 182.672 78.625C182.156 78.0781 181.078 77.5156 180.516 77.5C180.219 77.5 180.156 77.4062 180.156 77.0469C180.156 76.7969 180.078 76.3906 180 76.1562C179.906 75.9219 179.797 75.1875 179.75 74.5469C179.719 73.8906 179.641 73.0312 179.609 72.6094C179.563 72.2031 179.5 71.5156 179.453 71.0938C179.406 70.6562 179.344 69.9375 179.281 69.4844C179.234 69.0469 179.172 68.3594 179.141 67.9688C179.109 67.5781 179.031 66.9844 178.984 66.6406C178.938 66.2969 178.875 65.6562 178.828 65.2188C178.781 64.7812 178.703 64.25 178.672 64.0469C178.625 63.8438 178.547 63.3906 178.516 63.0469C178.328 61.5938 178.266 61.1562 178.203 60.7812C178.156 60.5625 178.094 60.2188 178.047 60C177.984 59.6562 177.828 58.875 177.594 57.7344C177.484 57.2188 177.031 55.25 176.969 55.0781C176.953 54.9844 176.844 54.6094 176.734 54.2188C174.594 46.4688 169.547 40.5312 161.953 36.8438C160.219 36.0156 158.047 35.1406 157.109 34.9375C157.031 34.9062 156.641 34.8125 156.25 34.7031C155.859 34.5938 155.422 34.4688 155.281 34.4375C155.125 34.4062 154.859 34.3438 154.688 34.2969C154.391 34.2188 154.219 34.1875 153.281 33.9844C152.156 33.75 150.891 33.5469 149.297 33.3438C148.047 33.2031 147.797 33.1719 146.563 33.0625C145.922 33 145.078 32.9219 144.688 32.8906C143.156 32.7344 139.484 32.5625 134.766 32.4062C131.859 32.3125 120.5 32.2188 120.422 32.2812ZM146.359 147.844C147.016 148.812 147.141 149.125 147.578 150.859C148.078 152.781 148.391 153.812 148.703 154.531C149.109 155.453 149.969 156.516 150.516 156.766C150.891 156.953 151.156 157.281 151.531 158.031C151.813 158.578 152.219 159.266 152.438 159.531C152.813 159.969 152.828 160.031 152.609 160.359C152.484 160.547 151.984 161.094 151.484 161.562C149.766 163.203 149.344 163.672 149.047 164.297C148.891 164.641 148.547 165.312 148.281 165.781C147.563 167.109 147.703 167.984 148.75 168.516C149.719 169.016 150.781 168.656 151.688 167.5C152.359 166.641 152.859 166.312 154.094 165.938C154.938 165.672 155 165.672 155.422 165.938C155.672 166.078 155.984 166.391 156.141 166.609C156.391 166.984 156.375 167.016 156.047 167.234C155.594 167.516 154.844 167.703 154.844 167.516C154.844 167.297 154 167.438 153.328 167.797C152.656 168.141 152.031 168.688 152.031 168.922C152.031 169 151.844 169.25 151.625 169.453C151.328 169.734 151.109 169.797 150.719 169.734C150.016 169.625 148.813 170.531 148.875 171.125C148.906 171.375 148.828 171.594 148.688 171.672C148.563 171.75 148.094 172.141 147.656 172.562C147.047 173.141 146.875 173.25 146.859 173.016C146.844 172.859 146.828 172.562 146.797 172.344C146.781 172.125 146.719 171.5 146.656 170.953C146.609 170.391 146.531 169.719 146.484 169.469C146.438 169.203 146.375 168.672 146.313 168.281C146.266 167.891 146.203 167.406 146.172 167.188C146.156 166.969 146.078 166.438 146.031 166.016C145.969 165.578 145.875 164.922 145.828 164.531C145.766 164.141 145.734 163.422 145.75 162.922C145.766 162.422 145.719 161.875 145.625 161.719C145.516 161.516 145.516 161.391 145.641 161.312C145.828 161.203 145.75 157.984 145.531 156.016C145.391 154.688 145.359 150.344 145.5 149.266C145.563 148.703 145.641 148 145.656 147.719C145.672 147.422 145.734 147.188 145.813 147.188C145.875 147.188 146.125 147.484 146.359 147.844Z" fill="black"/>
<path d="M180.125 173.828C180.094 173.844 178.891 173.906 177.422 173.969C174.625 174.078 173.953 174.125 172.969 174.297C172.625 174.359 172.313 174.406 172.266 174.391C172.234 174.391 171.969 174.469 171.688 174.547C171.406 174.641 171.063 174.734 170.922 174.766C170.234 174.922 168.531 175.906 167.688 176.641C167.156 177.109 166.5 177.516 166.219 177.578C165.453 177.75 163.938 178.531 163.016 179.25C161.266 180.594 159.172 183.656 158.813 185.391C158.781 185.562 158.703 185.875 158.656 186.094C158.5 186.766 158.453 190.203 158.594 190.859C158.891 192.266 159.5 194.219 159.719 194.484C159.813 194.594 159.844 194.687 159.797 194.687C159.734 194.687 159.844 195.016 160.016 195.422C160.516 196.547 161.203 198.609 161.313 199.219C161.359 199.516 161.453 200.109 161.5 200.547C161.547 200.969 161.703 201.562 161.828 201.828C162.031 202.25 162.156 202.344 162.578 202.344C163.172 202.344 164.453 201.687 165.219 200.984L165.766 200.469L166.391 201.297C166.719 201.734 167.156 202.281 167.344 202.469C167.672 202.812 169.266 203.906 169.438 203.906C169.484 203.906 169.703 203.984 169.953 204.094C170.594 204.344 170.594 204.344 171.859 204.609C172.5 204.734 173.547 204.859 174.172 204.891C174.797 204.906 175.313 204.969 175.313 205.016C175.313 205.078 175.203 205.391 175.063 205.719C174.922 206.062 174.781 206.812 174.75 207.422C174.734 208.016 174.703 208.562 174.703 208.609C174.688 208.656 174.422 208.812 174.078 208.953C172.688 209.578 172.109 210.609 172.125 212.5C172.141 214.078 172.188 214.328 172.813 215.531C173.078 216.047 173.266 216.484 173.219 216.516C173.188 216.547 172.719 216.609 172.172 216.641C170.438 216.766 169.313 216.875 168.906 216.937C168.688 216.984 168.203 217.047 167.813 217.094C167.172 217.187 166.938 217.219 165.906 217.406C165.359 217.5 163.391 217.984 163.125 218.078C163 218.125 162.75 218.203 162.594 218.234C162.422 218.266 162.219 218.344 162.125 218.422C162.031 218.5 161.781 218.609 161.563 218.672C160.922 218.875 159.891 219.656 159.547 220.219C159.281 220.641 159.219 221 159.219 222.078C159.219 222.812 159.281 223.594 159.359 223.797C159.797 224.937 162.266 226.391 164.734 226.969C164.797 226.984 164.859 227 164.891 227.031C164.922 227.062 165.156 227.125 165.75 227.25C165.953 227.297 166.25 227.375 166.406 227.422C166.563 227.469 166.859 227.547 167.063 227.578C167.75 227.719 169.922 228.125 170.391 228.187C170.656 228.234 171.078 228.297 171.328 228.344C171.594 228.391 172.219 228.469 172.734 228.516C173.25 228.578 173.922 228.656 174.219 228.687C178.797 229.25 188.438 229.312 193.203 228.828C194.938 228.656 195.609 228.578 195.938 228.516C196.156 228.469 196.563 228.406 196.875 228.359C197.188 228.312 197.609 228.234 197.813 228.203C198.031 228.156 198.422 228.078 198.672 228.031C198.938 228 199.391 227.891 199.688 227.812C199.984 227.734 200.266 227.672 200.313 227.672C200.672 227.672 202.734 226.766 203.391 226.312C204.688 225.422 204.891 224.984 204.813 223.156C204.766 221.703 204.734 221.594 204.266 221C203.5 220.031 201.156 218.922 198.672 218.344C197.25 218.016 197.063 217.969 196.609 217.891C196.359 217.844 195.969 217.766 195.703 217.703C195.453 217.656 195.094 217.594 194.922 217.562C194.75 217.547 194.359 217.484 194.063 217.422C193.766 217.375 193.313 217.297 193.047 217.266C192.234 217.156 190.875 216.984 190.547 216.953C189.906 216.906 189.219 216.687 189.219 216.547C189.219 216.469 189.406 216.125 189.625 215.797C190.797 214 190.859 211.422 189.766 209.922C189.484 209.547 189.391 209.156 189.328 208.125C189.281 207.391 189.203 206.625 189.156 206.391C189.078 206.062 189.125 206 189.422 205.984C190.281 205.969 190.453 205.906 190.953 205.437C191.359 205.047 191.625 204.922 192.188 204.906C192.75 204.875 194.016 204.703 194.375 204.609C194.422 204.594 194.703 204.531 195 204.469C196.672 204.094 198.719 202.562 199.453 201.141C199.609 200.812 199.766 200.516 199.797 200.484C199.813 200.453 200.141 200.687 200.531 201C201.344 201.656 202.641 202.344 203.094 202.344C203.703 202.344 203.813 201.969 203.844 199.562C203.891 197 203.938 196.437 204.297 194.687C204.328 194.484 204.406 194.031 204.469 193.687C204.516 193.344 204.578 193.016 204.609 192.969C204.953 192.391 204.953 186.969 204.609 186.406C204.578 186.344 204.5 186.094 204.453 185.828C204.297 184.859 203.422 182.437 202.859 181.375C201.969 179.672 199.969 177.859 198.703 177.594C198.594 177.562 198.406 177.5 198.281 177.453C198.156 177.406 197.766 177.312 197.422 177.266C197.078 177.203 196.719 177.141 196.625 177.125C196.516 177.109 196.172 176.891 195.844 176.641C193.953 175.187 192.391 174.531 190.156 174.281C189.766 174.25 189.281 174.172 189.063 174.141C188.438 174.031 180.234 173.75 180.125 173.828Z" fill="black"/>
</svg>
