<svg xmlns="http://www.w3.org/2000/svg" width="2133.333" height="2133.333" preserveAspectRatio="xMidYMid meet" version="1.0" viewBox="0 0 1600 1600"><metadata>Created by potrace 1.14, written by Peter Selinger 2001-2017</metadata><g fill="#000" stroke="none"><path d="M7707 13934 c-1 -1 -130 -5 -287 -8 -157 -4 -312 -9 -345 -11 -33 -2 -112 -6 -175 -9 -173 -9 -350 -25 -459 -41 -20 -3 -54 -7 -76 -10 -22 -3 -51 -7 -65 -10 -14 -3 -38 -7 -55 -10 -16 -2 -41 -7 -55 -10 -14 -3 -38 -8 -54 -11 -16 -2 -32 -7 -36 -9 -3 -2 -17 -6 -31 -8 -108 -20 -276 -81 -434 -158 -386 -187 -656 -446 -823 -790 -45 -91 -105 -246 -118 -301 -2 -10 -6 -26 -8 -35 -36 -138 -59 -232 -61 -248 -6 -33 -25 -138 -30 -165 -3 -14 -8 -45 -10 -70 -3 -25 -8 -52 -10 -60 -2 -8 -7 -40 -10 -70 -3 -30 -8 -66 -10 -80 -6 -39 -19 -155 -30 -265 -3 -33 -7 -73 -10 -90 -2 -16 -7 -70 -10 -120 -10 -142 -11 -156 -26 -232 -12 -63 -16 -73 -34 -73 -12 0 -46 -12 -76 -27 -81 -42 -141 -143 -164 -278 -3 -16 -7 -40 -9 -52 -28 -139 -24 -370 10 -475 3 -11 7 -30 9 -41 7 -59 87 -253 127 -310 19 -26 20 -47 23 -280 1 -139 5 -264 9 -279 14 -62 21 -111 42 -288 7 -65 61 -212 83 -230 4 -3 15 -25 25 -50 35 -89 62 -136 121 -215 33 -44 63 -81 67 -83 4 -2 37 -45 74 -95 38 -51 91 -117 118 -147 28 -30 69 -80 90 -110 21 -30 64 -75 94 -100 30 -25 89 -79 131 -120 154 -153 236 -223 283 -243 41 -17 53 -29 89 -91 23 -39 58 -88 78 -109 36 -38 98 -77 123 -77 8 0 22 -15 33 -32 32 -55 115 -136 145 -143 l29 -6 -27 -44 c-17 -29 -31 -42 -43 -40 -17 3 -300 10 -841 20 l-267 5 -67 -25 c-86 -32 -93 -39 -88 -78 2 -18 6 -50 9 -72 9 -84 16 -141 21 -176 4 -35 8 -67 19 -174 3 -27 8 -61 10 -75 3 -14 7 -53 10 -85 3 -33 7 -73 10 -90 2 -16 7 -57 10 -90 4 -33 9 -71 10 -85 2 -14 6 -52 10 -85 3 -33 8 -71 10 -85 2 -14 7 -50 10 -80 3 -30 7 -71 10 -90 2 -19 7 -62 10 -95 4 -33 8 -71 10 -85 2 -14 7 -54 10 -90 4 -36 9 -74 11 -85 2 -11 7 -49 10 -85 3 -39 11 -68 19 -73 8 -4 12 -17 9 -30 -2 -12 -7 -35 -9 -52 -3 -16 -8 -37 -11 -46 -3 -11 5 -20 23 -27 24 -9 160 -46 214 -58 10 -2 28 -6 40 -9 11 -2 29 -7 39 -10 10 -3 28 -8 39 -10 22 -5 28 -7 106 -28 49 -13 49 -13 52 -58 1 -24 14 -67 28 -94 27 -54 123 -158 166 -181 30 -15 106 -34 159 -39 196 -20 207 -18 235 34 16 32 23 134 12 168 -8 21 -6 22 35 18 43 -4 113 -10 243 -20 39 -3 90 -8 115 -10 25 -2 79 -7 120 -10 41 -3 84 -7 95 -10 11 -2 23 -4 26 -4 3 -1 5 -13 3 -28 -2 -16 -6 -64 -9 -108 -3 -44 -8 -91 -10 -105 -4 -25 -11 -105 -20 -215 -3 -33 -8 -78 -11 -100 -3 -22 -7 -58 -9 -80 -2 -22 -6 -60 -10 -85 -3 -25 -8 -65 -11 -90 -8 -70 -15 -123 -19 -150 -2 -14 -7 -56 -10 -95 -4 -38 -8 -81 -10 -95 -2 -14 -6 -59 -9 -100 -4 -41 -9 -91 -11 -110 -3 -19 -7 -60 -10 -90 -12 -132 -15 -156 -20 -192 -3 -21 -8 -57 -11 -80 -4 -29 -17 -55 -40 -80 -19 -21 -34 -43 -34 -49 0 -6 -11 -20 -26 -31 -14 -11 -23 -23 -19 -26 3 -3 -2 -16 -10 -29 -9 -13 -14 -31 -13 -40 2 -14 -8 -19 -56 -25 -64 -8 -86 -21 -86 -48 0 -22 -21 -32 -78 -36 -40 -3 -102 -30 -102 -45 0 -3 -11 -18 -25 -34 -20 -20 -23 -30 -15 -40 8 -10 2 -18 -28 -35 -21 -12 -57 -42 -78 -67 -59 -68 -96 -106 -127 -128 -32 -23 -39 -58 -41 -190 -2 -98 -2 -97 -63 -81 -28 7 -38 10 -143 34 -47 11 -112 23 -145 27 -33 4 -71 8 -85 10 -14 1 -52 6 -85 9 -105 12 -169 32 -161 51 41 90 58 146 61 201 5 115 -43 205 -130 245 l-41 18 1 58 c1 33 -6 81 -17 112 -10 30 -17 56 -15 58 2 1 38 5 80 8 94 6 127 11 197 32 30 9 60 17 66 19 19 3 127 74 157 102 15 15 42 48 58 74 l31 48 42 -35 c23 -19 68 -46 100 -61 85 -39 117 -19 130 83 14 114 23 142 109 369 25 67 49 136 52 154 3 18 8 37 11 41 18 30 25 238 11 330 -20 127 -93 263 -208 386 -62 66 -93 88 -189 134 -57 28 -77 35 -102 38 -3 1 -30 21 -60 45 -104 85 -209 135 -313 150 -23 4 -52 9 -65 11 -92 18 -640 25 -872 12 -130 -8 -165 -12 -265 -33 -60 -12 -176 -68 -235 -114 -42 -32 -76 -50 -103 -53 -204 -29 -339 -161 -425 -418 -12 -35 -23 -71 -25 -79 -2 -8 -8 -35 -13 -60 -18 -77 -23 -130 -24 -224 -1 -83 3 -124 17 -196 6 -33 23 -127 29 -165 15 -93 19 -143 20 -260 1 -136 10 -166 49 -173 23 -4 90 32 149 81 44 35 68 41 68 16 0 -12 63 -109 71 -109 4 0 22 -14 39 -30 68 -63 182 -102 338 -114 52 -4 70 -11 98 -36 37 -32 74 -46 99 -36 12 4 14 0 10 -22 -4 -15 -9 -65 -12 -111 -5 -71 -10 -91 -35 -125 -32 -46 -38 -68 -42 -146 -4 -79 21 -158 78 -243 10 -15 17 -29 15 -31 -2 -2 -38 -7 -80 -10 -42 -4 -85 -8 -95 -10 -11 -2 -41 -7 -69 -10 -27 -4 -62 -9 -77 -11 -16 -3 -43 -7 -60 -10 -18 -3 -44 -8 -58 -10 -14 -3 -34 -7 -45 -9 -11 -3 -42 -10 -70 -16 -27 -6 -59 -13 -69 -16 -16 -3 -50 -13 -104 -29 -7 -3 -16 -5 -20 -6 -4 -1 -24 -10 -44 -20 -21 -10 -42 -19 -48 -19 -13 0 -25 -10 -94 -72 l-51 -47 -4 -91 c-4 -106 6 -137 57 -182 32 -27 122 -75 155 -82 7 -2 19 -6 27 -9 46 -19 185 -51 268 -62 17 -3 49 -7 70 -10 38 -6 99 -12 187 -20 168 -14 287 -19 505 -19 213 0 301 3 520 19 64 4 180 15 215 20 17 3 50 7 75 10 25 3 56 7 70 10 14 3 45 8 70 11 25 3 54 8 65 11 11 2 31 6 45 9 14 3 33 7 42 10 9 3 26 7 37 9 12 3 29 7 39 9 9 2 39 9 67 16 127 29 257 98 314 166 29 36 30 40 28 133 -1 53 -6 104 -11 115 -8 16 -6 18 20 12 162 -34 601 -40 814 -11 14 1 49 6 79 10 30 4 63 9 75 11 12 2 37 7 56 10 19 3 44 8 55 11 11 4 27 8 35 9 43 7 79 16 113 29 20 8 40 15 45 15 24 2 118 36 262 97 91 39 204 85 253 104 48 19 98 44 111 56 23 21 24 27 20 125 -2 57 -6 112 -8 123 -2 11 -5 26 -5 33 -1 7 -12 24 -26 38 -14 14 -28 42 -31 62 -12 70 -11 143 1 156 31 31 36 73 60 461 9 156 22 331 40 560 3 44 8 109 10 145 4 58 12 151 20 220 1 14 6 57 9 95 19 204 23 242 31 285 4 19 8 49 10 65 4 31 13 95 19 130 3 19 11 20 115 20 111 0 128 -5 128 -35 1 -8 3 -35 7 -60 3 -25 8 -63 11 -85 3 -22 7 -51 10 -65 3 -14 7 -52 10 -85 13 -140 21 -212 30 -255 3 -14 7 -45 10 -70 3 -25 8 -61 12 -80 3 -19 7 -96 8 -170 1 -74 6 -169 10 -210 4 -41 8 -100 10 -130 3 -54 14 -245 20 -345 13 -211 16 -253 20 -275 2 -14 7 -41 10 -60 3 -19 13 -42 22 -52 13 -14 15 -34 10 -103 -4 -75 -8 -90 -30 -113 -34 -36 -44 -86 -43 -212 l1 -104 33 -22 c18 -13 54 -30 80 -40 106 -38 230 -86 272 -106 93 -43 137 -61 205 -83 68 -22 144 -44 175 -50 8 -2 33 -8 55 -14 47 -12 97 -21 210 -36 133 -19 296 -29 470 -29 136 0 289 8 342 18 11 3 36 7 54 10 101 17 171 41 194 66 14 16 18 37 18 98 0 184 -12 227 -67 257 -20 11 -51 42 -70 70 -18 28 -58 68 -89 89 -41 28 -53 42 -50 56 7 25 -76 109 -108 112 -13 0 -28 2 -34 3 -5 2 -22 3 -37 4 -19 1 -31 9 -40 28 -17 35 -52 53 -107 53 -41 0 -43 1 -39 25 3 14 -1 30 -8 36 -8 6 -14 20 -14 31 0 10 -7 21 -15 25 -9 3 -23 20 -31 37 -9 17 -28 42 -42 56 -15 14 -28 34 -29 45 -2 30 -12 114 -18 165 -3 25 -8 68 -10 95 -3 28 -7 66 -10 85 -2 19 -7 64 -11 100 -3 36 -8 76 -9 90 -1 14 -6 54 -9 90 -11 118 -25 242 -31 280 -2 14 -6 52 -10 85 -3 33 -8 76 -10 95 -3 19 -6 53 -9 75 -8 72 -19 180 -19 195 0 38 2 41 24 30 28 -16 99 -3 199 37 8 3 21 7 29 9 8 1 28 9 45 18 170 81 243 107 316 111 154 7 214 34 319 139 46 45 88 91 93 102 6 10 17 24 25 31 31 24 51 105 48 188 -2 44 -6 94 -10 110 -5 28 -8 58 -20 203 -8 109 -43 271 -77 362 -29 79 -29 82 4 112 32 31 32 48 2 173 -23 94 -26 109 -26 120 1 6 4 34 7 63 3 30 1 70 -5 90 -5 21 -10 40 -10 45 0 15 -92 189 -157 298 -38 63 -90 157 -115 210 -59 119 -128 243 -139 247 -5 2 -9 8 -9 14 0 5 -13 29 -30 53 l-30 43 38 27 c47 35 129 122 148 158 8 15 19 27 24 27 6 0 11 0 13 1 100 20 188 67 252 135 22 23 54 46 70 50 17 4 55 26 85 49 30 23 67 50 81 61 111 81 203 164 260 235 24 31 69 85 100 120 66 75 368 475 377 498 3 9 20 36 38 61 35 49 114 199 119 228 2 9 4 17 5 17 2 0 6 18 14 64 4 19 11 41 15 50 5 9 11 34 14 56 3 22 8 47 11 55 3 8 7 29 9 45 3 17 8 41 11 55 25 105 38 423 24 555 -4 31 0 47 18 71 35 46 102 200 119 274 0 3 4 14 8 25 3 11 8 31 11 45 3 14 8 36 11 50 18 81 23 247 11 345 -4 33 -9 74 -11 92 -2 17 -11 54 -19 82 -8 28 -13 51 -10 51 10 0 -57 118 -85 148 -33 35 -102 71 -138 72 -19 0 -23 6 -23 29 0 16 -5 42 -10 57 -6 15 -13 62 -16 103 -2 42 -7 97 -9 124 -3 26 -7 70 -10 97 -3 28 -7 74 -11 103 -3 28 -7 72 -9 97 -2 25 -7 63 -10 85 -3 22 -7 63 -10 91 -3 28 -8 62 -10 75 -3 13 -8 42 -10 64 -12 93 -16 121 -20 145 -3 14 -7 36 -10 50 -4 22 -14 72 -29 145 -7 33 -36 159 -40 170 -1 6 -8 30 -15 55 -137 496 -460 876 -946 1112 -111 53 -250 109 -310 122 -5 2 -30 8 -55 15 -25 7 -53 15 -62 17 -10 2 -27 6 -38 9 -19 5 -30 7 -90 20 -72 15 -153 28 -255 41 -80 9 -96 11 -175 18 -41 4 -95 9 -120 11 -98 10 -333 21 -635 31 -186 6 -913 12 -918 8z m1660 -7396 c42 -62 50 -82 78 -193 32 -123 52 -189 72 -235 26 -59 81 -127 116 -143 24 -12 41 -33 65 -81 18 -35 44 -79 58 -96 24 -28 25 -32 11 -53 -8 -12 -40 -47 -72 -77 -110 -105 -137 -135 -156 -175 -10 -22 -32 -65 -49 -95 -46 -85 -37 -141 30 -175 62 -32 130 -9 188 65 43 55 75 76 154 100 54 17 58 17 85 0 16 -9 36 -29 46 -43 16 -24 15 -26 -6 -40 -29 -18 -77 -30 -77 -18 0 14 -54 5 -97 -18 -43 -22 -83 -57 -83 -72 0 -5 -12 -21 -26 -34 -19 -18 -33 -22 -58 -18 -45 7 -122 -51 -118 -89 2 -16 -3 -30 -12 -35 -8 -5 -38 -30 -66 -57 -39 -37 -50 -44 -51 -29 -1 10 -2 29 -4 43 -1 14 -5 54 -9 89 -3 36 -8 79 -11 95 -3 17 -7 51 -11 76 -3 25 -7 56 -9 70 -1 14 -6 48 -9 75 -4 28 -10 70 -13 95 -4 25 -6 71 -5 103 1 32 -2 67 -8 77 -7 13 -7 21 1 26 12 7 7 213 -7 339 -9 85 -11 363 -2 432 4 36 9 81 10 99 1 19 5 34 10 34 4 0 20 -19 35 -42z" transform="translate(0.000000,1600.000000) scale(0.100000,-0.100000)"/><path d="M11528 4875 c-2 -1 -79 -5 -173 -9 -179 -7 -222 -10 -285 -21 -22 -4 -42 -7 -45 -6 -2 0 -19 -5 -37 -10 -18 -6 -40 -12 -49 -14 -44 -10 -153 -73 -207 -120 -34 -30 -76 -56 -94 -60 -49 -11 -146 -61 -205 -107 -112 -86 -246 -282 -269 -393 -2 -11 -7 -31 -10 -45 -10 -43 -13 -263 -4 -305 19 -90 58 -215 72 -232 6 -7 8 -13 5 -13 -4 0 3 -21 14 -47 32 -72 76 -204 83 -243 3 -19 9 -57 12 -85 3 -27 13 -65 21 -82 13 -27 21 -33 48 -33 38 0 120 42 169 87 l35 33 40 -53 c21 -28 49 -63 61 -75 21 -22 123 -92 134 -92 3 0 17 -5 33 -12 41 -16 41 -16 122 -33 41 -8 108 -16 148 -18 40 -1 73 -5 73 -8 0 -4 -7 -24 -16 -45 -9 -22 -18 -70 -20 -109 -1 -38 -3 -73 -3 -76 -1 -3 -18 -13 -40 -22 -89 -40 -126 -106 -125 -227 1 -101 4 -117 44 -194 17 -33 29 -61 26 -63 -2 -2 -32 -6 -67 -8 -111 -8 -183 -15 -209 -19 -14 -3 -45 -7 -70 -10 -41 -6 -56 -8 -122 -20 -35 -6 -161 -37 -178 -43 -8 -3 -24 -8 -34 -10 -11 -2 -24 -7 -30 -12 -6 -5 -22 -12 -36 -16 -41 -13 -107 -63 -129 -99 -17 -27 -21 -50 -21 -119 0 -47 4 -97 9 -110 28 -73 186 -166 344 -203 4 -1 8 -2 10 -4 2 -2 17 -6 55 -14 13 -3 32 -8 42 -11 10 -3 29 -8 42 -10 44 -9 183 -35 213 -39 17 -3 44 -7 60 -10 17 -3 57 -8 90 -11 33 -4 76 -9 95 -11 293 -36 910 -40 1215 -9 111 11 154 16 175 20 14 3 40 7 60 10 20 3 47 8 60 10 14 3 39 8 55 11 17 2 46 9 65 14 19 5 37 9 40 9 23 0 155 58 197 87 83 57 96 85 91 202 -3 93 -5 100 -35 138 -49 62 -199 133 -358 170 -91 21 -103 24 -132 29 -16 3 -41 8 -58 12 -16 3 -39 7 -50 9 -11 1 -36 5 -55 9 -19 3 -48 8 -65 10 -52 7 -139 18 -160 20 -41 3 -85 17 -85 26 0 5 12 27 26 48 75 115 79 280 9 376 -18 24 -24 49 -28 115 -3 47 -8 96 -11 111 -5 21 -2 25 17 26 55 1 66 5 98 35 26 25 43 33 79 34 36 2 117 13 140 19 3 1 21 5 40 9 107 24 238 122 285 213 10 21 20 40 22 42 1 2 22 -13 47 -33 52 -42 135 -86 164 -86 39 0 46 24 48 178 3 164 6 200 29 312 2 13 7 42 11 64 3 22 7 43 9 46 22 37 22 384 0 420 -2 4 -7 20 -10 37 -10 62 -66 217 -102 285 -57 109 -185 225 -266 242 -7 2 -19 6 -27 9 -8 3 -33 9 -55 12 -22 4 -45 8 -51 9 -7 1 -29 15 -50 31 -121 93 -221 135 -364 151 -25 2 -56 7 -70 9 -40 7 -565 25 -572 20z" transform="translate(0.000000,1600.000000) scale(0.100000,-0.100000)"/></g></svg>