<svg version="1" xmlns="http://www.w3.org/2000/svg" width="346.667" height="346.667" viewBox="0 0 260.000000 260.000000"><path d="M34.2 5.2l.3 5.2-17.2-.3L0 9.8v8.6c0 7.9.5 9.7 2.3 7.9.4-.3 3.7-.8 7.4-.9 3.8-.2 8.2-.5 9.8-.6 2.7-.3 3 0 3 2.8 0 1.7.8 3.8 1.8 4.8 2 2 2.1 2.8.7 4.2-.7.7-.7 2.1.1 4.2.8 2.3.8 4.5 0 8.3-1.2 5.6-.6 7.3 3 8.4 1.9.7 2.8 5.5.9 5.5-.5 0 .2 1.1 1.5 2.5 3 2.9 3.2 5.1.7 5.7-1.5.4-1.8 1.2-1.4 3.7.4 2.8.1 3.2-2.7 3.7-1.7.4-4.1 1.7-5.3 2.9-1.2 1.3-2.8 2.1-3.5 1.8-1.9-.7-1.6-2.3.5-2.3.9 0 2.4-1.5 3.3-3.3 1.5-3.1 1.5-3.3-.5-4.9-2.1-1.5-2.3-1.4-4.6 1.1-1.4 1.4-2.7 3.5-3 4.6-.3 1.1-1.6 2.5-2.9 3.1C8 83.2 5.5 87 5.8 89.8c.3 2.1-3.3 9.3-5 10-.4.2-.8 9.2-.8 19.9 0 19 .1 19.5 2 19 2.3-.6 3.7 1 2.2 2.5-.6.6-1.2.6-1.6-.1-1.6-2.5-2.6-.8-2.6 4.1.1 3.1.7 6.1 1.5 7.2 2 2.7 2 8.6 0 8.6-.9 0-1.5.9-1.5 2.2 0 2 .1 2 1.8.5 2.9-2.6 4.3-2.1 3.6 1-.9 3.9-1.3 4.3-3.5 4.3-2.3 0-2.5 1.5-.4 2.4 2 .7 2 6 0 8-2.2 2.1-1.8 4.4.7 4.8 3.3.4 3.5 3.5.4 4.9-2.1 1-2.6 1.9-2.6 4.7 0 2 .7 4.3 1.6 5.3 1.1 1.2 1.4 2.5.9 3.6-.5 1-.7 2.3-.6 3 .1.6-.3 1.4-.9 1.8-.6.4-1 5.5-1 12.6 0 12 0 12 2.3 11.3 2.5-.8 9.4-3.9 11.7-5.3 3.8-2.2 22.8-11 25-11.6 1.9-.4 3.8.4 8 3.6 3 2.3 8.9 6 13 8.2 4.1 2.3 10.4 6.9 14 10.2 5.6 5.3 18.7 14.7 25.7 18.3 1.2.7 2.5 2.1 2.8 3.2.6 1.7 1.5 2 7.6 2h6.9v-3.3c0-5.1 2.5-6.6 9.4-5.6 3.2.4 6.4.5 7.1.2 1.9-.7 4.8 4.1 4 6.7-.6 1.9-.2 2 5.6 2 4.1 0 6.5-.5 7.3-1.4.6-.8 4.5-3.2 8.6-5.4 14.9-7.8 34.6-21.6 39.8-27.9 2-2.4 4.4-4.3 5.4-4.3.9 0 4.1 1.4 7 3.1 13 7.7 28.7 15.9 30.5 15.9 1.1 0 1.4-1.4 1.2-6.8-.5-12.7 1.9-29.6 5.3-37.2 1.9-4 2-5.6 1.3-15.5-.4-6-.9-13.9-1.1-17.5-.2-3.6-.6-7.8-1-9.3-.4-1.6-.1-3.8.5-5 .9-1.8.8-3.4-.9-8.2-1.2-3.3-2.8-8.9-3.6-12.5-1.3-6.1-3.6-13.6-5.5-18.8-.5-1.3-.9-4.5-.9-7.1 0-3.3-.6-5.6-2-7.4-1.1-1.4-2-4-2-5.7 0-3.1-2.7-9-4.1-9-.4 0-1.1-1.5-1.4-3.3-.4-1.7-1.3-3.9-2-4.7-.7-.8-2.1-3.4-3-5.8-1-2.3-2-4.2-2.2-4.2-.3 0-2.8 1.3-5.5 3-5.7 3.5-6.8 3.7-6.8 1.1 0-2.2 4.3-5.6 8.3-6.6 2.1-.6 2.6-1.2 2.2-2.5-.3-1-.1-2.1.5-2.5.6-.3.7-1.2.3-1.8-.4-.6-.6-2.6-.5-4.4.3-3.7-1.5-4.6-2-1.1-.2 1.4-1.2 2.4-2.8 2.8-1.7.4-2.7 1.4-3 3.3-.6 3.4-5.6 9.7-7.5 9.7-1.9 0-1.9-3.4 0-5 .8-.7 1.5-2 1.5-2.9 0-.9.9-2.2 2.1-2.9 1.6-1 1.8-1.6.9-2.7-1.6-1.9-.5-3.4 3.6-5.1 4.1-1.7 4.3-3 .8-3.8-1.9-.5-3-.2-3.9 1.1-3.8 5.2-4.3 5.6-6 5-1.2-.5-1.6-1.5-1.3-3.7.4-2.7.3-2.8-2.4-2.3-3.5.7-4.6-1.6-2.3-5.1.9-1.4 1.6-3.8 1.5-5.3-.1-1.5-.2-3.4-.1-4.1.1-1.6 3.1-1.5 5.5.3 1.1.8 2.8 1.5 3.7 1.5 2.8 0 4.9 2.9 4.9 6.8 0 2.8.3 3.3 1 2.2 2.5-3.9.5-8.2-5.4-11.6-1.9-1.1-1.9-1.2.3-1.9 1.3-.4 2.8-.2 3.4.4 1.8 1.8 5 1.4 4.3-.5-.5-1.4-.1-1.5 3-.9 2 .3 4.5 1.2 5.7 1.8 1.5.9 2.1.9 2.4 0 .3-1 1-1 2.4-.2 2.5 1.3 19.7.7 22.5-.8 1.2-.7 2.5-.8 3.5-.2.7.5 2.2.9 3.2.9 1.5 0 1.7-1 1.7-7.5V9l-21.2-.2-21.3-.3.3-4.3.3-4.2H33.9l.3 5.2zM32 13.8c0 .5-1.1 1.9-2.5 3.2-2.2 2-2.5 2.1-3.1.6-.3-.9-.1-2.3.6-3.1 1.3-1.6 5-2.1 5-.7zm9 13.5c0 .8-.9 2.2-2 3.2-2.5 2.3-2.5 3.3 0 3.7 2 .3 1.9.4-.5 3-1.5 1.6-3.1 2.5-4 2.2-1.8-.7-2-3.4-.2-3.5.6 0 .2-.4-1.1-1-3.3-1.3-2.4-3.9 2.3-6.5 4.8-2.7 5.5-2.8 5.5-1.1zm101.5 16.1c8.1 4.6 11 6.5 12.3 8.5 3.3 5-4.8 3-12.7-3.1-3-2.3-7.1-2.4-7.1-.1 0 2.5 3 5.3 5.6 5.3 1.3 0 4.9 1 7.9 2.2 4.9 2 5.5 2.6 5.3 4.8-.4 3.3-4.7 4.2-5.5 1.1-.6-2.3-1.4-2.6-2.9-1.1-.6.6-2.8.4-6.2-.6-3.4-1-7-1.4-10-1-2.6.4-6.1.7-7.9.9-1.8.1-3.8.8-4.4 1.4-.7.7-2.3 1.3-3.4 1.3-1.2 0-4 .9-6.3 2-2.2 1.1-4.3 2-4.5 2-1.1 0-1.6-3.3-.8-4.9 1.2-2.1 11.7-7.4 15.1-7.5 1.9-.1 2.6-.7 2.9-2.6.1-1.4.8-2.8 1.4-3.2.6-.3-.6-.5-2.5-.3-3.9.4-7.6 2-12.7 5.9-4.3 3.2-5.1 3.2-5.1.3 0-2.7 3.9-6.6 9-9.2 4.6-2.3 22.7-5.3 26.5-4.4 1.7.4 4.4 1.4 6 2.3zm54.7 4.2c.7.6-5.3 10.3-6.4 10.3-1.9.2-.6-4.9 2.5-9.7.8-1.2 2.9-1.6 3.9-.6zm6.4 3.9c.5 1.3-.7 3.1-6.8 9.6-2.2 2.3-3.8 2.4-3.8.4 0-.8.4-1.5.8-1.5.5 0 1.5-1.8 2.2-4 1.8-5.4 6.3-8 7.6-4.5zM33.2 57.2c-1.5 1.5-2.6.4-1.8-1.8.5-1.3.9-1.5 1.8-.6s.9 1.5 0 2.4zm169.6 10.1c.5 2.4-3.6 3.7-10 3.2-5.8-.4-6.7-1.6-1.9-2.8 1.7-.4 4.6-1.1 6.4-1.6 4-1.1 5.1-.9 5.5 1.2zm6.6 4.3c.8 2.2-.1 3.4-2.8 3.4-3 0-3.7-.9-2.5-3.1 1.2-2.3 4.5-2.5 5.3-.3zm6.6.5c0 1.2-3.7 1.2-4.5 0-.3-.5.3-1.1 1.2-1.3 2.1-.5 3.3 0 3.3 1.3zm5.5-1.2c.7 1.2-1.2 2.4-2.5 1.6-1.1-.7-.4-2.5 1-2.5.5 0 1.1.4 1.5.9zm-14 8c.8 1.3-3.5 4.1-6.2 4.1-2.4 0-2.7-.7-1.7-3.4.7-1.8 6.9-2.3 7.9-.7zM179 82c0 1.6-.4 3-1 3-.5 0-1-1.4-1-3 0-1.7.5-3 1-3 .6 0 1 1.3 1 3zm10 4c-1.8 1.1-2.4.6-1.6-1.6.5-1.4.9-1.5 1.9-.5.9.9.9 1.4-.3 2.1zm18.7 1.5c.8 2.1.4 2.4-5.1 3.1-4.8.7-6.5-.2-6.6-3.4 0-1.9 10.9-1.6 11.7.3zm10.3 1c1 1.2 1 1.5-.4 1.5-.9 0-1.6-.7-1.6-1.5s.2-1.5.4-1.5.9.7 1.6 1.5zm-69.7 5.3c2.3 1.6 4.3 3.4 4.4 3.9.3.8-4.1 4.4-10 8.5-.7.4-.5 1.8.3 3.7.9 2.3 1 3.4.1 4.5-1.4 1.7.5 2.6 5.4 2.6 3.7 0 5.5 1.7 3.4 3.2-.9.6-.2.7 2.1.2 1.9-.3 3.9-1.3 4.3-2 1-1.8 3.1-1.8 4.7.1.7.8 1.6 1.2 2.1.9 1.5-.9 1-3.4-.8-4.1-1-.4-2.4-1.3-3.2-2.1-1.2-1.1-3.1-1.3-8.8-.8-6.8.6-7.3.5-7.3-1.2 0-2.7 2.5-4.5 5.5-3.9 1.4.2 4.2-.2 6.3-.9 6.3-2.2 10-1.8 13.2 1.6 4 4.3 4.8 2.6 1.7-3.8-.9-1.9-.7-2.6 1-4.4 1.3-1.2 2.8-1.8 3.8-1.5 3.8 1.5 7.2 15.6 4.5 18.3-.8.8-.8 2.5 0 5.8.5 2.5.8 7 .5 9.9-.2 2.8-.7 8-.9 11.5-.4 4.1-1.2 7.3-2.6 9.2-1.1 1.5-2 3.2-2 3.7 0 1.6-8.2 10.4-11.1 11.9l-2.9 1.5.6-5.4c.8-6.9-.8-8.7-7.6-8.7-6 0-9.4-1.5-10.9-4.6-1-2.4-4.4-3.3-5.5-1.5-.3.5-2.1 1.2-4 1.5-2.8.5-4.4.1-7.5-1.8-3.9-2.5-4-2.5-4.6-.6-1 3.3-4.2 4.3-11.1 3.5l-6.4-.7-1.4 3.4c-.8 1.8-1.7 4.4-2 5.8-.3 1.4-1.2 3.4-1.9 4.5-1.3 1.6-1.7 1.7-3.1.6-.9-.7-1.6-2-1.6-2.8 0-2.2-3-2.7-4.4-.7-1.3 1.7-1.4 1.6-2.1-.7-.4-1.3-1.3-3.8-2.1-5.4-3.7-8.4-5.2-15.3-5.3-25.1-.1-7.9.2-10.4 1.4-11.4 2-1.6 1-3-2.1-3-2.5 0-2.5-.2-1.9-4.3 1.6-9.2 4.4-11.4 10.6-8.1 2.5 1.2 3 2 2.5 3.9-.8 3.3 1.1 4.1 3.9 1.5 2.8-2.6 8.8-3.6 13.7-2.2 2.9.8 4 .7 4.9-.4 1.5-1.8 2.4-1.8 4.3.2 3.1 3.1 2 4.4-3.8 4.4-5.2 0-13.8 2.9-15.1 5-1.1 1.7 2.4 2.3 5.5 1 2.6-1.1 3.3-1 4.9.4 2.2 2 3.5 2 5.1.1.9-1.1 1.6-1.2 3-.2 1.5.9 2.3.8 3.8-.6 1-.9 2.3-1.7 2.9-1.7.7 0 .9-1.6.6-4.3-.7-5.9-3.8-8.7-10.9-10.1-5.1-1-5.9-1.5-6.2-3.6-.2-2 .5-2.9 4-4.7 5.5-2.9 7.9-3.2 21.1-2.8 10.2.3 11.1.4 15 3.3zM17.5 94.9c.3.5.1 1.3-.5 1.6-1.5.9-4.3-.3-3.5-1.5.8-1.3 3.2-1.3 4-.1zM195.8 97c2.5 1.5 3.7 1.8 4.7 1 .7-.6 2.1-.7 3.1-.3 1.9.7 5.3 4.2 5.4 5.4 0 1.2-5.1 2-6.3 1.1-1.6-1.2-11-1.5-10.3-.4.9 1.5-2 3.4-4.5 3-3.3-.4-3.6-2.8-.5-2.8 1.4 0 2.6-.5 2.6-1 0-.6-.8-1-1.9-1-2.3 0-4.5-2.5-3.8-4.4.3-.8 1.8-1.6 3.4-1.9 1.5-.2 3.3-.5 3.8-.5.6-.1 2.5.7 4.3 1.8zM6.4 111.6c1.8.7 2.2 5.4.4 5.4-1.9 0-4.7-3.1-4.1-4.6.6-1.5 1.3-1.7 3.7-.8zm31.9 3c1.2 1.2-.5 3.2-2.4 2.7-2-.5-2.4-1.5-1.2-2.6.8-.9 2.8-.9 3.6-.1zm158.1.9c1.1.8 3.4 1.5 5.2 1.5 1.7 0 4.3.9 5.7 2 1.4 1.1 3 2 3.7 2 1.6 0 7.7 4.8 8.4 6.7.5 1.3.1 1.4-2.4.9-3-.6-3.1-.5-1.5 1.6 1.8 2.7 2 6.8.3 6.9-2.8.3-3.4.5-5.7 1.7-1.2.8-3.2 1.2-4.2.9-1-.3-1.9-.1-1.9.4 0 1.7-4.7.9-7.3-1.4-1.4-1.2-3.4-4.7-4.4-7.7-1.6-4.7-2.3-5.5-4.6-5.8-2.1-.3-2.7-.9-2.7-2.8 0-1.4.7-2.7 1.6-3.1.8-.3 1.3-1.2 1-2-.4-.8-.4-1.9 0-2.4.8-1.4 6.7-1 8.8.6zM78 125.3c0 .8-.7 2.8-1.6 4.5-1.2 2.5-1.3 3.6-.3 5.4.6 1.2 1.4 6.6 1.7 12.1.4 8.2.2 9.9-.9 9.5-.8-.3-1.5-1.5-1.7-2.9-.1-1.3-1-4.8-1.9-7.8-1.8-6-1.4-18.1.7-20.6 1.5-1.9 4-2 4-.2zM36 130c0 .5-.4 1-1 1-.5 0-1-.5-1-1 0-.6.5-1 1-1 .6 0 1 .4 1 1zm-18.3 9.6c.4 1.1 1.3 1.4 3 .9 3.7-.9 6.3.3 6.3 2.9 0 1.3-.7 2.9-1.5 3.6-.8.7-1.5 1.7-1.5 2.3 0 1.6-6.1 7.7-7.7 7.7-1.6 0-4.4-4.2-4.4-6.7-.1-1.4.8-10.5 1.1-12.1.2-1 4.2.1 4.7 1.4zm168 1.6c-.3.7-.5.2-.5-1.2s.2-1.9.5-1.3c.2.7.2 1.9 0 2.5zM33 149c0 .5-.4 1-1 1-.5 0-1-.5-1-1 0-.6.5-1 1-1 .6 0 1 .4 1 1zm170 4c1.8-1.1 4 .6 4 3 0 1 .7 2 1.5 2.4 1.7.6 2.1 4.6.5 4.6-1.7 0-5 3.9-5 6 0 1.3-.7 2-2 2-2 0-8-2.6-8-3.4 0-.3-.3-1.2-.7-2.2-.5-1.4-.1-1.6 2.6-1.2l3.1.5-2-2.2c-2.2-2.4-2.4-3.7-1.1-6.3.5-.9 1.2-2.5 1.5-3.6.6-1.7.8-1.7 2.4-.3 1.2 1.1 2.2 1.3 3.2.7zm-68.2 7.3c.3 1.2-.3 1.7-2.2 1.7-2.5 0-3.5-1.8-1.9-3.4 1.2-1.2 3.8-.2 4.1 1.7zm2.7 4.7c1.1.9 3.5 1.1 8.9.6 9-.8 10.5.2 8.2 5.8-.8 2-2.2 3.6-3 3.6-.8 0-2 .9-2.6 2.1-.8 1.4-1.7 1.8-2.8 1.4-6.5-2.6-15.2-4.1-20.2-3.5-3 .4-5.9.8-6.5 1-.5.2-1.7.1-2.5-.3-.8-.3-2.7-.8-4.2-1.1-3.4-.8-5.6-7-3.3-9.5 1.8-2.1 25.5-2.1 28-.1zm-49.8 19.7c3 5.4 15 16.8 19.8 18.9 1.7.7 3.9 2.2 4.9 3.3 1.1 1.2 2.5 2.1 3.2 2.1.7 0 2.9 1.4 4.8 3 2.5 2.2 4.3 3 6.3 2.8 1.8-.2 2.7.1 2.5 1-.1.8 1.1 1.2 3.7 1.2 3 0 3.8-.4 3.7-1.7-.1-1.1.9-1.9 3.1-2.3 1.7-.4 3.8-1.3 4.7-2.1.8-.8 2.7-2.4 4.3-3.7 1.5-1.2 7-5.7 12.2-9.8 7.2-5.9 9.5-7.3 10.2-6.3.5.8.9 2 .9 2.7 0 .7 1 4.2 2.2 7.7l2.3 6.4-2.1 2.8c-2.8 3.8-14.7 12.7-20.9 15.6-8.6 4.1-26.3 7.3-35.7 6.4-11.4-1.1-25.2-6.6-33.5-13.4C79.1 215 74 207 74 203c0-1.6 1.7-6.2 3.8-10.2 2-4 4.3-8.8 4.9-10.7 1.5-4 1.4-4.1 5 2.6zm148.3-1.2c0 .8-.4 1.5-.9 1.5-1.3 0-2.2-1.6-1.4-2.4 1.1-1.1 2.3-.6 2.3.9zm-2 5c0 .8-.4 1.5-.9 1.5-1.3 0-2.2-1.6-1.4-2.4 1.1-1.1 2.3-.6 2.3.9zm-102 .1c0 .3-1.4 1.9-3.1 3.5-2.5 2.3-3.5 2.7-4.5 1.8-3.1-2.6-.7-5.9 4.3-5.9 1.8 0 3.3.3 3.3.6zm91.5 2.4c.3.5 1.5 1 2.6 1 1.3 0 1.9.7 1.9 2.1 0 1.8-.4 2-3 1.4-2.9-.6-4.2.6-2 2 .6.3 1 1.5 1 2.5s.8 2.3 1.7 2.9c1.4.7 1.5 1.2.5 2.4-1.7 2 .5 2.9 3.1 1.3 1.3-.8 2-.8 2.7.4 1.4 2.1 1.2 3-.4 2.4-.8-.3-1.6.3-1.9 1.5-.7 2.8-1.7 2.6-5.5-.7-2.1-1.9-3.2-3.8-3.2-5.5 0-1.6-.8-3-2-3.7-1.2-.6-2-2.1-2-3.5s.8-2.9 2-3.5c1.1-.6 2-1.7 2-2.5 0-1.7 1.6-2 2.5-.5zm-204.7 5.1c.1.9-.6 2.6-1.6 3.9-1.8 2.2-2.1 2.3-6.5.9-3.7-1-4.7-1.8-4.7-3.5 0-3 .5-3.2 6.8-3.1 4.3.2 5.7.6 6 1.8zm113.2.9c0 1.1-.4 2-.9 2-1.4 0-2.3-1.8-1.6-3 1-1.7 2.5-1.1 2.5 1zm102 .1c0 1.8-.2 1.9-1.5.9-.8-.7-1.5-1.6-1.5-2.1s.7-.9 1.5-.9c.9 0 1.5.9 1.5 2.1zm-14.9 11c1.6 1.7 2.6 3.5 2.3 4-.8 1.3-3.4 1.1-3.4-.3 0-.6-.3-.9-.6-.6-.3.4 0 1.6.6 2.8.8 1.5 1.9 2.1 3.8 1.9 3.3-.4 5.3.7 4.6 2.5-.3.8-.1 1.7.5 2.1 1.6 1 1.3 2.5-.5 2.5-.9 0-2.5-1.2-3.6-2.6-1.3-1.6-2.8-2.4-3.8-2.1-2.7.7-6-4.4-6-9.3 0-5 2-5.3 6.1-.9zm3.4 16.9c.3.5-.1 1-.9 1s-1.8-.5-2.1-1c-.3-.6.1-1 .9-1s1.8.4 2.1 1zM78 227c0 .5-.9 1.4-2 2-2.2 1.2-2.3 1-1.4-1.4.7-1.7 3.4-2.2 3.4-.6z"/><path d="M127.5 116c.3.5.8 1 1.1 1 .2 0 .4-.5.4-1 0-.6-.5-1-1.1-1-.5 0-.7.4-.4 1zM127 122c0 1.1.5 2 1 2 .6 0 1-.9 1-2s-.4-2-1-2c-.5 0-1 .9-1 2zM198 157c0 .5 1.2 1 2.6 1 1.4 0 2.3-.4 1.9-1-.3-.6-1.5-1-2.6-1-1 0-1.9.4-1.9 1zM18 27c0 .5.5 1 1 1 .6 0 1-.5 1-1 0-.6-.4-1-1-1-.5 0-1 .4-1 1zM219 28.4c0 1.4.5 2.6 1 2.6.6 0 1-.9 1-1.9 0-1.1-.4-2.3-1-2.6-.6-.4-1 .5-1 1.9zM8 30.1c0 .5.5.7 1 .4.6-.3 1-.8 1-1.1 0-.2-.4-.4-1-.4-.5 0-1 .5-1 1.1zM121.7 255.7c-1.3 1.2-.7 4.3.8 4.3 1.9 0 5.6-3.1 4.9-4.2-.6-1-4.8-1.1-5.7-.1z"/></svg>